<?xml version="1.0" encoding="UTF-8" standalone="no"?>
<svg width="22px" height="20px" viewBox="0 0 22 20" version="1.1" xmlns="http://www.w3.org/2000/svg" xmlns:xlink="http://www.w3.org/1999/xlink" xmlns:sketch="http://www.bohemiancoding.com/sketch/ns">
    <!-- Generator: Sketch 3.2 (9961) - http://www.bohemiancoding.com/sketch -->
    <title>cart</title>
    <desc>Created with Sketch.</desc>
    <defs></defs>
    <g id="Page-1" stroke="none" stroke-width="1" fill="none" fill-rule="evenodd" sketch:type="MSPage">
        <path d="M0.676923077,1.40350877 L2.76387692,1.40350877 L4.06153846,16.902807 C4.06153846,16.9038596 5.29489231,19.6491228 6.76787692,19.6491228 C8.02661538,19.6491228 9.08566154,18.7526316 9.38756923,17.5438596 L12.2736308,17.5438596 C12.5755385,18.7526316 13.6332308,19.6491228 14.8923077,19.6491228 C16.3852615,19.6491228 17.6,18.3898246 17.6,16.8421053 C17.6,15.294386 16.3852615,14.0350877 14.8923077,14.0350877 C13.6332308,14.0350877 12.5755385,14.9319298 12.2736308,16.1403509 L9.38756923,16.1403509 C9.08566154,14.9319298 8.02796923,14.0350877 6.76923077,14.0350877 C6.19486154,14.0350877 5.66313846,14.222807 5.22449231,14.54 L5.03495385,12.2768421 C5.04883077,12.2775439 5.09858462,12.2803509 5.10975385,12.28 L18.9866769,11.5782456 C19.2764,11.5635088 19.5248308,11.3589474 19.6047077,11.0701754 L21.6354769,3.70175439 C21.6940308,3.49017544 21.6527385,3.26210526 21.5248,3.08631579 C21.3968615,2.91052632 21.1971692,2.80701754 20.9846154,2.80701754 L4.24058462,2.80701754 L4.05883077,0.641052632 C4.02836923,0.278245614 3.7356,0 3.38461538,0 L0.676923077,0 C0.302923077,0 0,0.314385965 0,0.701754386 C0,1.08947368 0.302923077,1.40350877 0.676923077,1.40350877 Z M14.8923077,15.4385965 C15.6389538,15.4385965 16.2461538,16.0680702 16.2461538,16.8421053 C16.2461538,17.6161404 15.6389538,18.245614 14.8923077,18.245614 C14.1456615,18.245614 13.5384615,17.6161404 13.5384615,16.8421053 C13.5384615,16.0680702 14.1456615,15.4385965 14.8923077,15.4385965 L14.8923077,15.4385965 Z M6.76923077,15.4385965 C7.51587692,15.4385965 8.12307692,16.0680702 8.12307692,16.8421053 C8.12307692,17.6161404 7.51587692,18.245614 6.76923077,18.245614 C6.02258462,18.245614 5.41538462,17.6161404 5.41538462,16.8421053 C5.41538462,16.0680702 6.02258462,15.4385965 6.76923077,15.4385965 L6.76923077,15.4385965 Z M20.0870154,4.21052632 L18.436,10.2007018 L5.04375385,10.8778947 C5.00076923,10.88 4.95947692,10.8877193 4.9192,10.8975439 L4.35836923,4.21052632 L20.0870154,4.21052632 L20.0870154,4.21052632 Z" id="cart" fill="#0B0B0A" sketch:type="MSShapeGroup"></path>
    </g>
</svg>