<?xml version="1.0" encoding="UTF-8" standalone="no"?>
<svg width="20px" height="21px" viewBox="0 0 20 21" version="1.1" xmlns="http://www.w3.org/2000/svg" xmlns:xlink="http://www.w3.org/1999/xlink" xmlns:sketch="http://www.bohemiancoding.com/sketch/ns">
    <!-- Generator: Sketch 3.2.2 (9983) - http://www.bohemiancoding.com/sketch -->
    <title>key</title>
    <desc>Created with Sketch.</desc>
    <defs></defs>
    <g id="Page-1" stroke="none" stroke-width="1" fill="none" fill-rule="evenodd" sketch:type="MSPage">
        <g id="noun_55011_cc" sketch:type="MSLayerGroup" transform="translate(-5.000000, -3.000000)" fill="#FFFFFF">
            <g id="key" transform="translate(15.500000, 14.000000) rotate(45.000000) translate(-15.500000, -14.000000) translate(3.000000, 8.000000)" sketch:type="MSShapeGroup">
                <path d="M3.87139441,7.17490909 C3.23974548,7.17490909 2.72591569,6.64772727 2.72591569,6 C2.72591569,5.35227273 3.23974548,4.82536364 3.87139441,4.82536364 C4.50304335,4.82536364 5.01713909,5.35227273 5.01713909,6 C5.01713909,6.64772727 4.50304335,7.17490909 3.87139441,7.17490909 L3.87139441,7.17490909 Z M3.87139441,5.50718182 C3.60623484,5.50718182 3.39080931,5.72836364 3.39080931,6 C3.39080931,6.27163636 3.6065008,6.49309091 3.87139441,6.49309091 C4.13628803,6.49309091 4.35224548,6.27190909 4.35224548,6 C4.35224548,5.72809091 4.13628803,5.50718182 3.87139441,5.50718182 L3.87139441,5.50718182 Z" id="Shape"></path>
                <path d="M22.8125,5.865 L11.7617021,5.865 C11.5781915,5.865 11.4292553,5.71227273 11.4292553,5.52409091 C11.4292553,5.33590909 11.5781915,5.18318182 11.7617021,5.18318182 L22.8125,5.18318182 C22.9960106,5.18318182 23.1449468,5.33590909 23.1449468,5.52409091 C23.1449468,5.71227273 22.9962766,5.865 22.8125,5.865 L22.8125,5.865 Z" id="Shape"></path>
                <path d="M6.0393617,11.9885455 C2.81914894,11.9885455 0.199468085,9.30190909 0.199468085,6 C0.199468085,2.69781818 2.81914894,0.0114545455 6.0393617,0.0114545455 C8.42234043,0.0114545455 10.5696809,1.50736364 11.4558511,3.75845455 L23.1545213,3.75845455 C23.2425532,3.75845455 23.3271277,3.79445455 23.3896277,3.85827273 L24.7029255,5.205 C24.7651596,5.26881818 24.800266,5.35554545 24.800266,5.44609091 L24.800266,7.00390909 C24.800266,7.09418182 24.7651596,7.18090909 24.7029255,7.245 L23.8287234,8.14145455 C23.7664894,8.20527273 23.6816489,8.24127273 23.593617,8.24127273 L21.0670213,8.24127273 C20.9609043,8.24127273 20.8611702,8.18945455 20.7984043,8.10136364 L20.55,7.75281818 L20.3015957,8.10136364 C20.2390957,8.18918182 20.1393617,8.24127273 20.0329787,8.24127273 L18.9736702,8.24127273 C18.8678191,8.24127273 18.7683511,8.18972727 18.7055851,8.10190909 L18.0066489,7.12527273 L17.3029255,7.54472727 C17.2587766,7.57118182 17.2090426,7.58645455 17.1579787,7.59 L16.5098404,7.63418182 L16.5098404,7.90036364 C16.5098404,8.08854545 16.3609043,8.24127273 16.1773936,8.24127273 L14.356383,8.24127273 C14.2550532,8.24127273 14.1595745,8.19381818 14.0962766,8.11281818 L13.6925532,7.59327273 L13.2888298,8.11281818 C13.2257979,8.19381818 13.1300532,8.24127273 13.0287234,8.24127273 L11.4545213,8.24127273 C10.5696809,10.4929091 8.42234043,11.9885455 6.0393617,11.9885455 L6.0393617,11.9885455 Z M6.0393617,0.693272727 C3.18590426,0.693272727 0.864361702,3.07390909 0.864361702,6 C0.864361702,8.92609091 3.18590426,11.3067273 6.0393617,11.3067273 C8.22101064,11.3067273 10.1797872,9.89181818 10.9135638,7.78581818 C10.9609043,7.65027273 11.0861702,7.55972727 11.2265957,7.55972727 L12.8696809,7.55972727 L13.4335106,6.834 C13.5598404,6.672 13.8271277,6.672 13.9534574,6.834 L14.5172872,7.55972727 L15.8454787,7.55972727 L15.8454787,7.31536364 C15.8454787,7.13590909 15.981383,6.987 16.1558511,6.97527273 L17.0367021,6.91527273 L17.931117,6.38181818 C18.0779255,6.29454545 18.2659574,6.33436364 18.3662234,6.47509091 L19.1422872,7.55972727 L19.8646277,7.55972727 L20.2816489,6.97418182 C20.4069149,6.79827273 20.693617,6.79827273 20.818883,6.97418182 L21.2359043,7.55972727 L23.456117,7.55972727 L24.1356383,6.86290909 L24.1356383,5.58736364 L23.0170213,4.44027273 L11.2265957,4.44027273 C11.0861702,4.44027273 10.9606383,4.34972727 10.9135638,4.21390909 C10.1797872,2.10818182 8.22101064,0.693272727 6.0393617,0.693272727 L6.0393617,0.693272727 Z" id="Shape"></path>
            </g>
        </g>
    </g>
</svg>