<?xml version="1.0" encoding="UTF-8" standalone="no"?>
<svg width="266px" height="21px" viewBox="0 0 266 21" version="1.1" xmlns="http://www.w3.org/2000/svg" xmlns:xlink="http://www.w3.org/1999/xlink" xmlns:sketch="http://www.bohemiancoding.com/sketch/ns">
    <!-- Generator: Sketch 3.2 (9961) - http://www.bohemiancoding.com/sketch -->
    <title>logo</title>
    <desc>Created with Sketch.</desc>
    <defs></defs>
    <g id="Page-1" stroke="none" stroke-width="1" fill="none" fill-rule="evenodd" sketch:type="MSPage">
        <path d="M264.421182,0 C265.153182,0 265.746182,0.603 265.746182,1.345 C265.746182,2.089 265.153182,2.691 264.421182,2.691 C263.689182,2.691 263.095182,2.089 263.095182,1.345 C263.095182,0.603 263.689182,0 264.421182,0 L264.421182,0 Z M265.682182,19.745 C265.542182,17.688 265.531182,15.611 265.515182,13.554 C265.500182,11.174 265.473182,8.792 265.648182,6.415 C265.653182,6.33 265.570182,6.24 265.469182,6.255 C264.581182,6.392 264.328182,6.44 263.333182,6.52 C263.254182,6.526 263.147182,6.573 263.153182,6.652 C263.335182,8.842 263.333182,11.456 263.333182,13.859 C263.333182,17.211 263.272182,18.426 263.190182,19.798 C263.183182,19.904 263.318182,19.969 263.403182,19.96 C264.259182,19.879 264.544182,19.875 265.469182,19.903 C265.561182,19.906 265.688182,19.825 265.682182,19.745 L265.682182,19.745 Z M233.567182,6.098 C232.179182,6.098 230.398182,6.335 228.903182,7.523 C226.623182,9.344 226.623182,12.327 226.623182,13.225 C226.623182,14.413 226.765182,16.841 228.546182,18.503 C229.330182,19.243 230.860182,20.171 233.389182,20.171 C235.386182,20.171 237.164182,19.613 238.482182,18.292 C239.873182,16.867 240.228182,15.072 240.228182,13.331 C240.228182,11.509 239.873182,10.4 239.588182,9.687 C238.660182,7.523 236.703182,6.098 233.567182,6.098 L233.567182,6.098 Z M237.913182,13.436 C237.913182,14.967 237.628182,17.368 235.740182,18.372 C235.063182,18.715 234.279182,18.874 233.498182,18.874 C231.753182,18.874 230.860182,18.24 230.291182,17.632 C229.151182,16.392 228.938182,14.307 228.938182,13.014 C228.938182,9.582 230.256182,7.391 233.533182,7.391 C234.101182,7.391 235.386182,7.444 236.417182,8.446 C237.735182,9.74 237.913182,12.142 237.913182,13.436 L237.913182,13.436 Z M154.987182,6.678 C155.094182,7.655 155.094182,7.946 155.201182,13.383 C155.201182,14.255 155.235182,15.126 155.235182,15.997 C155.235182,17.87 155.201182,18.793 155.131182,19.798 L155.343182,19.96 C156.269182,19.903 156.413182,19.903 157.374182,19.903 L157.587182,19.771 C157.443182,17.818 157.337182,12.618 157.374182,9.371 C159.367182,7.76 160.685182,7.602 161.542182,7.602 C164.318182,7.602 164.425182,9.978 164.496182,10.981 C164.566182,12.275 164.566182,14.861 164.566182,16.234 C164.566182,18.056 164.531182,18.793 164.496182,19.798 L164.674182,19.96 C165.423182,19.934 165.743182,19.903 166.669182,19.903 L166.882182,19.771 C166.811182,18.821 166.775182,18.002 166.775182,16.867 C166.738182,15.601 166.704182,14.36 166.704182,13.093 L166.704182,11.957 C166.704182,10.189 166.633182,10.03 166.492182,9.371 C167.807182,8.315 169.268182,7.575 170.835182,7.575 C173.257182,7.575 173.613182,9.159 173.719182,9.609 C173.861182,10.163 173.898182,10.743 173.898182,12.512 C173.898182,16.524 173.827182,18.161 173.719182,19.798 L173.933182,19.96 C174.645182,19.934 175.179182,19.903 175.964182,19.903 L176.141182,19.771 C176.001182,16.735 176.037182,15.969 176.037182,13.225 L176.037182,11.931 C176.037182,9.714 176.001182,8.843 175.359182,7.866 C174.789182,7.049 173.898182,6.52 172.972182,6.308 C172.510182,6.203 172.012182,6.15 171.513182,6.15 C168.841182,6.15 167.167182,7.286 165.992182,8.21 C165.528182,7.18 164.388182,6.15 162.252182,6.15 C159.974182,6.15 158.585182,7.154 157.337182,8.024 C157.337182,7.127 157.374182,6.968 157.443182,6.415 L157.266182,6.283 C156.304182,6.415 156.163182,6.415 155.201182,6.52 L154.987182,6.678 L154.987182,6.678 Z M221.791182,17.897 C221.369182,18.191 220.330182,18.821 218.550182,18.821 C214.393182,18.821 213.385182,15.78 213.385182,13.225 C213.385182,11.826 213.599182,7.47 218.156182,7.47 C219.348182,7.47 220.445182,7.659 221.329182,8.289 C221.423182,8.356 221.535182,8.298 221.541182,8.21 C221.570182,7.76 221.600182,7.522 221.719182,6.836 C221.733182,6.743 221.642182,6.657 221.541182,6.625 C220.969182,6.445 219.903182,6.098 218.336182,6.098 C212.915182,6.098 211.071182,9.853 211.071182,13.304 C211.071182,17.739 213.669182,20.197 218.372182,20.197 C219.617182,20.197 220.794182,19.986 221.647182,19.666 C221.736182,19.632 221.815182,19.529 221.826182,19.428 C221.899182,18.716 221.939182,18.452 221.968182,17.976 C221.972182,17.903 221.860182,17.849 221.791182,17.897 L221.791182,17.897 Z M255.458182,19.96 C256.489182,19.9 256.598182,19.899 257.487182,19.903 C257.596182,19.903 257.711182,19.831 257.704182,19.745 C257.628182,19.032 257.594182,18.636 257.594182,17.343 L257.594182,14.36 L257.559182,11.72 C257.522182,9.503 257.559182,8.605 256.847182,7.681 C256.028182,6.652 254.674182,6.15 253.072182,6.15 C250.934182,6.15 249.369182,6.942 247.874182,7.866 C247.908182,7.233 247.939182,7.152 248.051182,6.415 C248.063182,6.322 247.928182,6.243 247.837182,6.255 C246.946182,6.387 246.731182,6.414 245.701182,6.52 C245.619182,6.528 245.553182,6.599 245.557182,6.678 C245.733182,9.344 245.735182,12.037 245.735182,14.729 C245.735182,16.419 245.699182,18.109 245.629182,19.798 C245.626182,19.885 245.757182,19.967 245.843182,19.96 C246.552182,19.904 246.839182,19.902 247.874182,19.903 C247.976182,19.903 248.093182,19.852 248.087182,19.745 C247.867182,16.287 247.874182,12.802 247.908182,9.318 C249.154182,8.341 250.720182,7.55 252.360182,7.55 C255.208182,7.55 255.315182,9.661 255.352182,10.4 C255.423182,11.35 255.423182,13.146 255.423182,14.016 C255.423182,15.442 255.352182,18.584 255.244182,19.798 C255.234182,19.921 255.375182,19.965 255.458182,19.96 L255.458182,19.96 Z M191.101182,19.798 C191.109182,19.965 191.210182,19.967 191.314182,19.96 C192.135182,19.902 192.278182,19.902 193.133182,19.903 C193.251182,19.903 193.357182,19.828 193.346182,19.719 C193.166182,18.215 193.133182,17.474 193.133182,14.545 L193.133182,11.35 C193.133182,9.186 193.166182,8.499 192.596182,7.681 C191.599182,6.229 189.604182,6.124 188.358182,6.124 C187.040182,6.124 185.367182,6.283 183.942182,6.836 C183.876182,6.862 183.766182,6.918 183.763182,7.021 C183.749182,7.575 183.731182,7.761 183.623182,8.289 C183.596182,8.411 183.758182,8.456 183.871182,8.394 C184.605182,7.986 185.686182,7.444 187.824182,7.444 C191.066182,7.444 191.066182,8.948 191.066182,10.743 L189.038182,11.06 C187.505182,11.297 185.474182,11.614 184.050182,12.539 C182.412182,13.594 182.127182,15.072 182.127182,15.997 C182.127182,18.214 183.871182,20.144 187.112182,20.144 C188.929182,20.144 190.066182,19.613 191.066182,19.032 L191.101182,19.798 L191.101182,19.798 Z M191.066182,17.606 C190.353182,18.082 189.250182,18.821 187.541182,18.821 C185.260182,18.821 184.298182,17.368 184.298182,15.917 C184.298182,14.65 185.047182,13.594 186.684182,12.961 C187.541182,12.618 187.789182,12.591 191.066182,12.037 L191.066182,17.606 L191.066182,17.606 Z M202.040182,19.745 C201.864182,17.501 201.826182,13.727 201.826182,13.41 C201.826182,10.822 201.896182,9.159 203.071182,8.289 C203.499182,7.971 204.176182,7.707 205.031182,7.707 C205.778182,7.707 206.316182,7.889 206.597182,7.998 C206.672182,8.027 206.812182,7.974 206.812182,7.893 C206.812182,7.418 206.840182,6.938 206.918182,6.467 C206.929182,6.394 206.864182,6.309 206.777182,6.283 C206.525182,6.205 206.137182,6.07 205.494182,6.07 C203.106182,6.07 202.146182,7.655 201.719182,8.289 C201.755182,7.575 201.792182,6.968 201.791182,6.415 C201.791182,6.322 201.693182,6.236 201.576182,6.255 C200.650182,6.417 200.437182,6.437 199.474182,6.493 C199.395182,6.498 199.321182,6.561 199.333182,6.652 C199.614182,9.027 199.617182,13.41 199.617182,15.969 C199.617182,17.897 199.576182,18.715 199.545182,19.798 C199.545182,19.865 199.623182,19.942 199.725182,19.934 C200.684182,19.862 200.865182,19.903 201.826182,19.903 C201.912182,19.903 202.050182,19.86 202.040182,19.745 L202.040182,19.745 Z M129.004182,6.098 C127.614182,6.098 125.833182,6.335 124.337182,7.523 C122.057182,9.344 122.057182,12.327 122.057182,13.225 C122.057182,14.413 122.199182,16.841 123.981182,18.503 C124.765182,19.243 126.295182,20.171 128.824182,20.171 C130.819182,20.171 132.599182,19.613 133.918182,18.292 C135.307182,16.867 135.663182,15.072 135.663182,13.331 C135.663182,11.509 135.307182,10.4 135.021182,9.687 C134.094182,7.523 132.137182,6.098 129.004182,6.098 L129.004182,6.098 Z M133.348182,13.436 C133.348182,14.967 133.062182,17.368 131.175182,18.372 C130.500182,18.715 129.716182,18.874 128.931182,18.874 C127.186182,18.874 126.295182,18.24 125.725182,17.632 C124.586182,16.392 124.373182,14.307 124.373182,13.014 C124.373182,9.582 125.690182,7.391 128.967182,7.391 C129.537182,7.391 130.819182,7.444 131.851182,8.446 C133.170182,9.74 133.348182,12.142 133.348182,13.436 L133.348182,13.436 Z M92.149182,17.923 C92.149182,18.379 92.113182,18.842 92.044182,19.296 C92.028182,19.4 92.080182,19.497 92.185182,19.533 C93.824182,20.091 95.604182,20.171 96.387182,20.171 C100.945182,20.171 102.265182,17.765 102.265182,16.234 C102.265182,13.963 100.021182,13.119 98.133182,12.406 L96.709182,11.879 C95.498182,11.43 94.322182,10.901 94.322182,9.609 C94.322182,8.315 95.463182,7.337 97.706182,7.337 C98.988182,7.337 100.279182,7.649 101.197182,8.315 C101.275182,8.373 101.410182,8.347 101.410182,8.262 C101.410182,7.8 101.466182,7.347 101.554182,6.889 C101.565182,6.814 101.554182,6.741 101.445182,6.704 C99.952182,6.173 98.205182,6.124 97.634182,6.124 C96.815182,6.124 94.678182,6.203 93.290182,7.365 C92.648182,7.893 92.114182,8.711 92.114182,9.793 C92.114182,11.826 93.894182,12.565 96.175182,13.463 L97.314182,13.911 C98.738182,14.464 99.914182,14.967 99.914182,16.392 C99.914182,17.765 98.703182,19.006 96.387182,19.006 C94.216182,19.006 92.964182,18.219 92.398182,17.87 C92.307182,17.813 92.149182,17.816 92.149182,17.923 L92.149182,17.923 Z M86.588182,12.907 C86.699182,12.907 86.835182,12.86 86.835182,12.75 C86.835182,11.483 86.816182,9.308 85.376182,7.814 C84.680182,7.092 83.273182,6.124 80.852182,6.124 C76.934182,6.124 74.156182,8.737 74.156182,13.093 C74.156182,15.785 75.153182,17.395 76.114182,18.292 C77.931182,20.04 80.352182,20.197 81.672182,20.197 C83.131182,20.197 84.620182,20.062 85.873182,19.481 C85.964182,19.43 86.083182,19.378 86.087182,19.27 C86.122182,18.583 86.120182,18.451 86.230182,17.923 C86.254182,17.818 86.097182,17.746 85.979182,17.818 C84.311182,18.849 82.633182,18.848 82.171182,18.848 C77.859182,18.848 76.294182,16.155 76.363182,12.907 L86.588182,12.907 L86.588182,12.907 Z M76.507182,11.641 C76.828182,9.001 78.466182,7.337 80.746182,7.337 C81.921182,7.337 83.667182,7.84 84.307182,9.793 C84.520182,10.505 84.520182,11.14 84.520182,11.641 L76.507182,11.641 L76.507182,11.641 Z M69.997182,17.897 C69.576182,18.191 68.538182,18.821 66.757182,18.821 C62.599182,18.821 61.591182,15.78 61.591182,13.225 C61.591182,11.826 61.805182,7.47 66.364182,7.47 C67.555182,7.47 68.652182,7.659 69.535182,8.289 C69.630182,8.356 69.742182,8.298 69.750182,8.21 C69.777182,7.76 69.807182,7.522 69.925182,6.836 C69.941182,6.743 69.850182,6.657 69.750182,6.625 C69.175182,6.445 68.109182,6.098 66.543182,6.098 C61.122182,6.098 59.276182,9.853 59.276182,13.304 C59.276182,17.739 61.878182,20.197 66.578182,20.197 C67.824182,20.197 69.001182,19.986 69.854182,19.666 C69.943182,19.632 70.022182,19.529 70.033182,19.428 C70.107182,18.716 70.146182,18.452 70.177182,17.976 C70.179182,17.903 70.067182,17.849 69.997182,17.897 L69.997182,17.897 Z M117.393182,17.897 C116.972182,18.191 115.932182,18.821 114.153182,18.821 C109.996182,18.821 108.987182,15.78 108.987182,13.225 C108.987182,11.826 109.203182,7.47 113.760182,7.47 C114.952182,7.47 116.049182,7.659 116.930182,8.289 C117.026182,8.356 117.138182,8.298 117.143182,8.21 C117.174182,7.76 117.205182,7.522 117.322182,6.836 C117.337182,6.743 117.247182,6.657 117.143182,6.625 C116.571182,6.445 115.506182,6.098 113.938182,6.098 C108.517182,6.098 106.673182,9.853 106.673182,13.304 C106.673182,17.739 109.272182,20.197 113.973182,20.197 C115.221182,20.197 116.396182,19.986 117.252182,19.666 C117.341182,19.632 117.420182,19.529 117.429182,19.428 C117.504182,18.716 117.543182,18.452 117.572182,17.976 C117.576182,17.903 117.464182,17.849 117.393182,17.897 L117.393182,17.897 Z M51.630182,19.96 C52.663182,19.9 52.771182,19.899 53.660182,19.903 C53.768182,19.903 53.883182,19.831 53.875182,19.745 C53.798182,19.032 53.766182,18.636 53.766182,17.343 L53.766182,14.36 L53.730182,11.72 C53.694182,9.503 53.730182,8.605 53.018182,7.681 C52.201182,6.652 50.846182,6.15 49.244182,6.15 C47.106182,6.15 45.541182,6.942 44.044182,7.866 C44.080182,7.233 44.112182,7.152 44.221182,6.415 C44.234182,6.322 44.099182,6.243 44.008182,6.255 C43.117182,6.387 42.903182,6.414 41.871182,6.52 C41.791182,6.528 41.724182,6.599 41.729182,6.678 C41.905182,9.344 41.908182,12.037 41.908182,14.729 C41.908182,16.419 41.871182,18.109 41.800182,19.798 C41.798182,19.885 41.929182,19.967 42.014182,19.96 C42.725182,19.904 43.012182,19.902 44.044182,19.903 C44.148182,19.903 44.265182,19.852 44.258182,19.745 C44.041182,16.287 44.044182,12.802 44.080182,9.318 C45.327182,8.341 46.893182,7.55 48.533182,7.55 C51.380182,7.55 51.487182,9.661 51.524182,10.4 C51.594182,11.35 51.594182,13.146 51.594182,14.016 C51.594182,15.442 51.524182,18.584 51.417182,19.798 C51.406182,19.921 51.546182,19.965 51.630182,19.96 L51.630182,19.96 Z M33.995182,19.798 C34.003182,19.965 34.104182,19.967 34.210182,19.96 C35.027182,19.902 35.172182,19.902 36.024182,19.903 C36.143182,19.903 36.252182,19.828 36.238182,19.719 C36.057182,18.215 36.024182,17.474 36.024182,14.545 L36.024182,11.35 C36.024182,9.186 36.059182,8.499 35.490182,7.681 C34.494182,6.229 32.499182,6.124 31.253182,6.124 C29.934182,6.124 28.259182,6.283 26.836182,6.836 C26.768182,6.862 26.660182,6.918 26.658182,7.021 C26.642182,7.575 26.626182,7.761 26.515182,8.289 C26.490182,8.411 26.652182,8.456 26.764182,8.394 C27.500182,7.986 28.582182,7.444 30.717182,7.444 C33.960182,7.444 33.960182,8.948 33.960182,10.743 L31.929182,11.06 C30.396182,11.297 28.367182,11.614 26.942182,12.539 C25.305182,13.594 25.019182,15.072 25.019182,15.997 C25.019182,18.214 26.764182,20.144 30.007182,20.144 C31.822182,20.144 32.962182,19.613 33.960182,19.032 L33.995182,19.798 L33.995182,19.798 Z M33.960182,17.606 C33.247182,18.082 32.143182,18.821 30.433182,18.821 C28.152182,18.821 27.191182,17.368 27.191182,15.917 C27.191182,14.65 27.940182,13.594 29.579182,12.961 C30.433182,12.618 30.683182,12.591 33.960182,12.037 L33.960182,17.606 L33.960182,17.606 Z M16.214182,19.745 C16.036182,17.501 15.998182,13.727 15.998182,13.41 C15.998182,10.822 16.068182,9.159 17.245182,8.289 C17.673182,7.971 18.349182,7.707 19.204182,7.707 C19.952182,7.707 20.488182,7.889 20.769182,7.998 C20.843182,8.027 20.983182,7.974 20.983182,7.893 C20.983182,7.418 21.012182,6.938 21.091182,6.467 C21.103182,6.394 21.037182,6.309 20.948182,6.283 C20.698182,6.205 20.307182,6.07 19.667182,6.07 C17.280182,6.07 16.319182,7.655 15.891182,8.289 C15.926182,7.575 15.965182,6.968 15.962182,6.415 C15.962182,6.322 15.867182,6.236 15.748182,6.255 C14.824182,6.417 14.608182,6.437 13.646182,6.493 C13.567182,6.498 13.494182,6.561 13.506182,6.652 C13.786182,9.027 13.790182,13.41 13.790182,15.969 C13.790182,17.897 13.747182,18.715 13.718182,19.798 C13.716182,19.865 13.795182,19.942 13.896182,19.934 C14.856182,19.862 15.038182,19.903 15.998182,19.903 C16.084182,19.903 16.219182,19.86 16.214182,19.745 L16.214182,19.745 Z M7.79818199,7.55 C7.87318199,7.102 7.86718199,6.966 7.94118199,6.545 C7.95818199,6.458 7.88018199,6.356 7.69218199,6.361 C6.27018199,6.408 6.26818199,6.388 4.52218199,6.415 L4.52218199,4.804 C4.52218199,3.511 4.48618199,2.403 5.19818199,1.795 C5.76918199,1.299 6.97618199,1.136 7.76418199,1.425 C7.85618199,1.46 7.96818199,1.37 7.97618199,1.267 C8.00818199,0.897 8.01218199,0.765 8.12018199,0.317 C8.13518199,0.247 8.05418199,0.125 7.94118199,0.106 C7.65618199,0.056 7.22818199,0 6.69418199,0 C4.30818199,0 2.99218199,1.162 2.56218199,2.403 C2.34918199,3.089 2.31418199,3.906 2.34918199,5.147 L2.38718199,6.388 C1.35218199,6.388 1.27918199,6.389 0.283181991,6.336 C0.210181991,6.332 0.076181991,6.399 0.070181991,6.494 C0.041181991,7.049 0.028181991,7.102 0.000181990999,7.575 C-0.004818009,7.659 0.094181991,7.711 0.177181991,7.707 C0.639181991,7.687 1.24718199,7.681 2.42218199,7.655 C2.45718199,10.849 2.45718199,14.122 2.45718199,17.316 C2.45718199,18.425 2.45518199,18.848 2.42218199,19.798 C2.41818199,19.893 2.52118199,19.968 2.63418199,19.96 C3.52318199,19.899 3.59618199,19.903 4.59318199,19.903 C4.70918199,19.903 4.77418199,19.85 4.77118199,19.771 C4.59318199,15.759 4.48618199,11.72 4.52218199,7.681 C6.12618199,7.681 6.55218199,7.681 7.58618199,7.707 C7.67018199,7.709 7.78518199,7.641 7.79818199,7.55 L7.79818199,7.55 Z" id="logo" fill="#21242C" sketch:type="MSShapeGroup"></path>
    </g>
</svg>