<?xml version="1.0" encoding="UTF-8" standalone="no"?>
<svg width="30px" height="30px" viewBox="0 0 30 30" version="1.1" xmlns="http://www.w3.org/2000/svg" xmlns:xlink="http://www.w3.org/1999/xlink" xmlns:sketch="http://www.bohemiancoding.com/sketch/ns">
    <!-- Generator: Sketch 3.3 (11970) - http://www.bohemiancoding.com/sketch -->
    <title>man</title>
    <desc>Created with Sketch.</desc>
    <defs></defs>
    <g id="Page-1" stroke="none" stroke-width="1" fill="none" fill-rule="evenodd" sketch:type="MSPage">
        <path d="M28.6072277,27.2545545 C28.2582178,26.8205941 27.5474257,26.2862376 26.6688119,25.8118812 C24.5747525,24.680495 20.1383168,23.4959406 19.6419802,22.9205941 C19.419505,22.6633663 18.8833663,21.7654455 19.0393069,20.5663366 C19.0794059,20.3465347 19.1405941,20.1148515 19.2279208,19.8742574 C19.7815842,18.8316832 21.0038614,17.9878218 21.2845545,15.9089109 C21.2863366,15.9089109 21.2890099,15.9086139 21.2913861,15.9086139 C21.4140594,15.9089109 21.5524752,15.8952475 21.7027723,15.8560396 C22.2724752,15.7075248 22.4762376,14.7166337 22.4762376,14.7166337 C22.4762376,14.7166337 22.9645545,13.1685149 23.0459406,12.8842574 C23.1276238,12.5991089 23.3717822,11.9887129 23.2906931,11.3367327 C23.2179208,10.7575248 22.7836634,10.4607921 22.4091089,10.4670297 C22.3514851,10.4652475 22.2959406,10.47 22.2418812,10.4818812 C22.1230693,10.5092079 21.8254455,10.5564356 21.8536634,10.4016832 C22.0660396,9.22722772 22.180099,8.34089109 22.180099,7.18544554 C22.180099,3.21742574 18.9635644,0 14.9946535,0 L14.979505,0 L14.9640594,0 C10.9957426,0 7.77861386,3.21742574 7.77861386,7.18544554 C7.77861386,8.34089109 7.89326733,9.22722772 8.10564356,10.4016832 C8.13326733,10.5564356 7.83623762,10.5092079 7.71712871,10.4818812 C7.66336634,10.47 7.60752475,10.4652475 7.55019802,10.4670297 C7.17564356,10.4607921 6.74138614,10.7575248 6.66891089,11.3367327 C6.58722772,11.9887129 6.83138614,12.5991089 6.91306931,12.8842574 C6.99475248,13.1685149 7.48306931,14.7166337 7.48306931,14.7166337 C7.48306931,14.7166337 7.68653465,15.7075248 8.25594059,15.8560396 C8.40653465,15.8952475 8.5449505,15.9089109 8.66821782,15.9086139 C8.67,15.9086139 8.67178218,15.9089109 8.67386139,15.9089109 C8.85118812,17.8933663 10.1774257,18.8319802 10.7310891,19.8742574 C10.8184158,20.1148515 10.879901,20.3465347 10.919703,20.5663366 C11.0759406,21.7654455 10.5392079,22.6633663 10.3170297,22.9205941 C9.82009901,23.4959406 5.3839604,24.680495 3.29019802,25.8118812 C2.41188119,26.2862376 1.70108911,26.8205941 1.35178218,27.2545545 C0.564653465,27.8961386 0.103960396,28.8689109 0,29.8336634 L29.840198,29.8336634 C29.7106931,28.7937624 29.2470297,27.760099 28.6072277,27.2545545 L28.6072277,27.2545545 Z" id="man" fill="#000000" sketch:type="MSShapeGroup"></path>
    </g>
</svg>