<?xml version="1.0" encoding="UTF-8" standalone="no"?>
<svg width="40px" height="40px" viewBox="0 0 40 40" version="1.1" xmlns="http://www.w3.org/2000/svg" xmlns:xlink="http://www.w3.org/1999/xlink" xmlns:sketch="http://www.bohemiancoding.com/sketch/ns">
    <!-- Generator: Sketch 3.2 (9961) - http://www.bohemiancoding.com/sketch -->
    <title>phone</title>
    <desc>Created with Sketch.</desc>
    <defs></defs>
    <g id="Page-1" stroke="none" stroke-width="1" fill="none" fill-rule="evenodd" sketch:type="MSPage">
        <path d="M31.703,40 L31.4,40 C26.176,40 15.591,34.738 10.427,29.574 C5.262,24.409 0,13.824 0,8.599 L0,8.297 L0.168,8.045 C1.427,6.157 5.753,0 8.601,0 C10.977,0 15.841,4.417 17.274,7.876 C18.145,9.978 17.556,11.192 16.908,11.841 C15.858,12.89 14.808,13.539 13.964,14.06 C12.604,14.901 12.134,15.241 12.134,16.2 C12.134,18.319 14.561,20.746 16.908,23.093 C19.256,25.441 21.682,27.867 23.8,27.867 C24.76,27.867 25.099,27.396 25.94,26.036 C26.461,25.192 27.11,24.142 28.16,23.093 C28.685,22.567 29.387,22.29 30.19,22.29 C33.841,22.29 40,28.5 40,31.4 C40,34.247 33.842,38.574 31.955,39.832 L31.703,40 L31.703,40 Z M2.007,8.895 C2.207,13.73 7.156,23.474 11.841,28.16 C16.526,32.845 26.269,37.794 31.104,37.994 C34.483,35.701 38,32.564 38,31.4 C38,29.722 32.836,24.29 30.19,24.29 C29.836,24.29 29.675,24.406 29.574,24.507 C28.689,25.392 28.132,26.293 27.641,27.088 C26.797,28.454 25.924,29.867 23.8,29.867 C20.854,29.867 18.13,27.143 15.497,24.51 C12.858,21.872 10.134,19.148 10.134,16.2 C10.134,14.077 11.547,13.204 12.913,12.359 C13.707,11.868 14.608,11.311 15.494,10.427 C15.887,10.033 15.674,9.239 15.427,8.641 C14.144,5.545 9.783,2 8.601,2 C7.435,2 4.298,5.516 2.007,8.895 L2.007,8.895 Z" id="phone" fill="#21242C" sketch:type="MSShapeGroup"></path>
    </g>
</svg>