<?xml version="1.0" encoding="UTF-8" standalone="no"?>
<svg width="32px" height="32px" viewBox="0 0 32 32" version="1.1" xmlns="http://www.w3.org/2000/svg" xmlns:xlink="http://www.w3.org/1999/xlink" xmlns:sketch="http://www.bohemiancoding.com/sketch/ns">
    <!-- Generator: Sketch 3.2.2 (9983) - http://www.bohemiancoding.com/sketch -->
    <title>profile</title>
    <desc>Created with Sketch.</desc>
    <defs></defs>
    <g id="Page-1" stroke="none" stroke-width="1" fill="none" fill-rule="evenodd" sketch:type="MSPage">
        <g id="noun_78759_cc" sketch:type="MSLayerGroup" transform="translate(-2.000000, 0.000000)" fill="#FFFFFF">
            <path d="M18,0 C9.16373333,0 2,7.16373333 2,16 C2,24.8369778 9.16373333,32 18,32 C26.8362667,32 34,24.8369778 34,16 C34,7.16373333 26.8362667,0 18,0 M26.7643333,26.6513333 C26.4666667,26.517 26.114,26.356 25.916,26.2863333 C25.0416667,25.9763333 24.1393333,25.7383333 23.2293333,25.5616667 C21.9796667,25.318 21.5413333,24.7296667 21.471,23.4206667 C21.4613333,23.2316667 21.211,21.6446667 21.4106667,21.5453333 C22.239,21.131 22.3746667,19.814 22.4506667,19.0093333 C22.5073333,18.4153333 22.8163333,18.1463333 23.0903333,17.6606667 C23.389,17.1296667 23.5333333,16.529 23.695,15.9466667 C23.8143333,15.5206667 24.0253333,14.8116667 23.9456667,14.3716667 C23.8706667,13.965 23.5636667,13.5886667 23.5636667,13.1546667 C23.5636667,12.597 23.7796667,12.0066667 23.84,11.4483333 C23.9343333,10.587 23.9186667,9.715 23.7476667,8.86366667 C23.2906667,6.575 21.06,5.74133333 18.9826667,5.29633333 C17.0256667,4.87733333 14.7366667,5.88933333 13.413,7.26466667 C12.8703333,7.83 12.204,8.53966667 12.0993333,9.35066667 C12.004,10.097 12.013,10.9853333 12.125,11.7253333 C12.1836667,12.1143333 12.2176667,12.5076667 12.268,12.8973333 C12.309,13.2086667 12.5353333,13.5033333 12.451,13.8173333 C12.402,14.0026667 12.2926667,14.1643333 12.2073333,14.3353333 C11.8053333,15.1403333 12.2306667,16.2406667 12.5903333,16.9836667 C12.76,17.3333333 12.958,17.679 13.2046667,17.981 C13.5013333,18.343 13.513,18.598 13.53,19.062 C13.5603333,19.8823333 13.7976667,21.2623333 14.625,21.6753333 C14.8256667,21.7756667 14.5386667,23.2316667 14.5283333,23.4206667 C14.458,24.7296667 14.6203333,25.318 13.3696667,25.5616667 C12.46,25.7386667 11.558,25.9766667 10.6836667,26.2863333 C10.3486667,26.4046667 9.82366667,26.6086667 9.40766667,26.788 C6.23733333,24.2566667 4.2,20.3633333 4.2,16 C4.2,8.391 10.391,2.2 18,2.2 C25.609,2.2 31.8,8.391 31.8,16 C31.8,20.285 29.8376667,24.118 26.7643333,26.6513333" id="profile" sketch:type="MSShapeGroup"></path>
        </g>
    </g>
</svg>