<?xml version="1.0" encoding="UTF-8" standalone="no"?>
<svg width="66px" height="66px" viewBox="0 0 66 66" version="1.1" xmlns="http://www.w3.org/2000/svg" xmlns:xlink="http://www.w3.org/1999/xlink" xmlns:sketch="http://www.bohemiancoding.com/sketch/ns">
    <!-- Generator: Sketch 3.0.4 (8053) - http://www.bohemiancoding.com/sketch -->
    <title>refresh</title>
    <desc>Created with Sketch.</desc>
    <defs></defs>
    <g id="Page-1" stroke="none" stroke-width="1" fill="none" fill-rule="evenodd" sketch:type="MSPage">
        <g id="Imported-Layers" sketch:type="MSLayerGroup" transform="translate(1.000000, 1.000000)" fill="#0B4ACE">
            <path d="M29.802,1.863 C29.802,2.968 30.698,3.863 31.802,3.863 C39.281,3.863 46.312,6.775 51.601,12.064 C56.89,17.354 59.802,24.385 59.802,31.863 C59.802,39.244 56.96,46.187 51.802,51.45 L51.802,45.863 C51.802,44.759 50.907,43.863 49.802,43.863 C48.698,43.863 47.802,44.759 47.802,45.863 L47.802,57.863 L59.802,57.863 C60.907,57.863 61.802,56.968 61.802,55.863 C61.802,54.759 60.907,53.863 59.802,53.863 L55.026,53.863 C60.687,47.895 63.802,40.121 63.802,31.863 C63.802,23.316 60.474,15.28 54.429,9.236 C48.386,3.191 40.35,-0.137 31.802,-0.137 C30.698,-0.137 29.802,0.759 29.802,1.863 Z M9.176,54.49 C15.22,60.535 23.255,63.863 31.802,63.863 C32.907,63.863 33.802,62.968 33.802,61.863 C33.802,60.759 32.907,59.863 31.802,59.863 C24.323,59.863 17.292,56.951 12.005,51.662 C6.715,46.373 3.802,39.342 3.802,31.863 C3.802,24.482 6.644,17.54 11.802,12.276 L11.802,17.863 C11.802,18.968 12.698,19.863 13.802,19.863 C14.907,19.863 15.802,18.968 15.802,17.863 L15.802,5.863 L3.802,5.863 C2.698,5.863 1.802,6.759 1.802,7.863 C1.802,8.968 2.698,9.863 3.802,9.863 L8.579,9.863 C2.917,15.832 -0.198,23.605 -0.198,31.863 C-0.198,40.41 3.132,48.446 9.176,54.49 Z" id="refresh" sketch:type="MSShapeGroup"></path>
        </g>
    </g>
</svg>