<?xml version="1.0" encoding="UTF-8" standalone="no"?>
<svg width="14px" height="14px" viewBox="0 0 14 14" version="1.1" xmlns="http://www.w3.org/2000/svg" xmlns:xlink="http://www.w3.org/1999/xlink" xmlns:sketch="http://www.bohemiancoding.com/sketch/ns">
    <!-- Generator: Sketch 3.2 (9961) - http://www.bohemiancoding.com/sketch -->
    <title>search</title>
    <desc>Created with Sketch.</desc>
    <defs></defs>
    <g id="Page-1" stroke="none" stroke-width="1" fill="none" fill-rule="evenodd" sketch:type="MSPage">
        <path d="M13.8545455,11.7345455 L10.7709091,8.61090909 C11.2727273,7.73454545 11.5345455,6.76 11.5345455,5.77818182 C11.5345455,2.59272727 8.94545455,0 5.76727273,0 C2.58909091,0 0,2.59272727 0,5.77818182 C0,8.96363636 2.58909091,11.5563636 5.76727273,11.5563636 C6.78181818,11.5563636 7.78545455,11.2763636 8.68,10.7418182 L11.7490909,13.8545455 C11.8181818,13.9236364 11.9163636,13.9672727 12.0145455,13.9672727 C12.1127273,13.9672727 12.2109091,13.9272727 12.28,13.8545455 L13.8545455,12.2618182 C14,12.1127273 14,11.88 13.8545455,11.7345455 L13.8545455,11.7345455 Z M5.76727273,2.25090909 C7.70909091,2.25090909 9.28727273,3.83272727 9.28727273,5.77818182 C9.28727273,7.72363636 7.70909091,9.30545455 5.76727273,9.30545455 C3.82545455,9.30545455 2.24727273,7.72363636 2.24727273,5.77818182 C2.24727273,3.83272727 3.82545455,2.25090909 5.76727273,2.25090909 L5.76727273,2.25090909 Z" id="search" fill="#000000" sketch:type="MSShapeGroup"></path>
    </g>
</svg>