<?xml version="1.0" encoding="UTF-8" standalone="no"?>
<svg width="13px" height="13px" viewBox="0 0 13 13" version="1.1" xmlns="http://www.w3.org/2000/svg" xmlns:xlink="http://www.w3.org/1999/xlink" xmlns:sketch="http://www.bohemiancoding.com/sketch/ns">
    <!-- Generator: Sketch 3.2 (9961) - http://www.bohemiancoding.com/sketch -->
    <title>simmilar</title>
    <desc>Created with Sketch.</desc>
    <defs></defs>
    <g id="Page-1" stroke="none" stroke-width="1" fill="none" fill-rule="evenodd" sketch:type="MSPage">
        <g id="simmilar" sketch:type="MSLayerGroup" fill="#0B0B0A">
            <path d="M0.5604,5.7726 L5.3604,5.7726 C5.5814,5.7726 5.7604,5.5936 5.7604,5.3726 L5.7604,0.5726 C5.7604,0.3518 5.5814,0.1726 5.3604,0.1726 L0.5604,0.1726 C0.3396,0.1726 0.1604,0.3518 0.1604,0.5726 L0.1604,5.3726 C0.1604,5.5936 0.3396,5.7726 0.5604,5.7726 L0.5604,5.7726 Z M0.9604,0.9726 L4.9604,0.9726 L4.9604,4.9726 L0.9604,4.9726 L0.9604,0.9726 Z" id="Fill-1" sketch:type="MSShapeGroup"></path>
            <path d="M12.9604,0.5726 C12.9604,0.3518 12.7814,0.1726 12.5604,0.1726 L7.7604,0.1726 C7.5396,0.1726 7.3604,0.3518 7.3604,0.5726 L7.3604,5.3726 C7.3604,5.5936 7.5396,5.7726 7.7604,5.7726 L12.5604,5.7726 C12.7814,5.7726 12.9604,5.5936 12.9604,5.3726 L12.9604,0.5726 L12.9604,0.5726 Z M8.1604,0.9726 L12.1604,0.9726 L12.1604,4.9726 L8.1604,4.9726 L8.1604,0.9726 Z" id="Fill-2" sketch:type="MSShapeGroup"></path>
            <path d="M0.5604,12.9726 L5.5604,12.9726 C5.7814,12.9726 5.9604,12.7936 5.9604,12.5726 L5.9604,7.5726 C5.9604,7.3518 5.7814,7.1726 5.5604,7.1726 L0.5604,7.1726 C0.3396,7.1726 0.1604,7.3518 0.1604,7.5726 L0.1604,12.5726 C0.1604,12.7936 0.3396,12.9726 0.5604,12.9726 L0.5604,12.9726 Z M0.9604,7.9726 L5.1604,7.9726 L5.1604,12.1726 L0.9604,12.1726 L0.9604,7.9726 Z" id="Fill-3" sketch:type="MSShapeGroup"></path>
            <path d="M12.5604,7.3726 L7.7604,7.3726 C7.5396,7.3726 7.3604,7.5518 7.3604,7.7726 L7.3604,12.5726 C7.3604,12.7936 7.5396,12.9726 7.7604,12.9726 L12.5604,12.9726 C12.7814,12.9726 12.9604,12.7936 12.9604,12.5726 L12.9604,7.7726 C12.9604,7.5518 12.7814,7.3726 12.5604,7.3726 L12.5604,7.3726 Z M8.1604,8.1726 L12.1604,8.1726 L12.1604,12.1726 L8.1604,12.1726 L8.1604,8.1726 Z" id="Fill-4" sketch:type="MSShapeGroup"></path>
        </g>
    </g>
</svg>