<?xml version="1.0" encoding="UTF-8" standalone="no"?>
<svg width="37px" height="37px" viewBox="0 0 37 37" version="1.1" xmlns="http://www.w3.org/2000/svg" xmlns:xlink="http://www.w3.org/1999/xlink" xmlns:sketch="http://www.bohemiancoding.com/sketch/ns">
    <!-- Generator: Sketch 3.3 (11970) - http://www.bohemiancoding.com/sketch -->
    <title>top</title>
    <desc>Created with Sketch.</desc>
    <defs></defs>
    <g id="Page-1" stroke="none" stroke-width="1" fill="none" fill-rule="evenodd" sketch:type="MSPage">
        <g id="top" sketch:type="MSLayerGroup" fill="#000000">
            <path d="M18.5,37 C28.7172679,37 37,28.7172679 37,18.5 C37,8.28273213 28.7172679,0 18.5,0 C8.28273213,0 0,8.28273213 0,18.5 C0,28.7172679 8.28273213,37 18.5,37 L18.5,37 L18.5,37 Z M18.5,36 C8.83501687,36 1,28.1649831 1,18.5 C1,8.83501687 8.83501687,1 18.5,1 C28.1649831,1 36,8.83501687 36,18.5 C36,28.1649831 28.1649831,36 18.5,36 L18.5,36 L18.5,36 Z" id="Shape" sketch:type="MSShapeGroup"></path>
            <g id="arrow" transform="translate(18.146447, 22.253048) rotate(-45.000000) translate(-18.146447, -22.253048) translate(10.646447, 14.253048)" sketch:type="MSShapeGroup">
                <rect id="Path" x="14" y="1" width="1" height="14"></rect>
                <rect id="Rectangle-1" transform="translate(8.000000, 1.500000) scale(1, -1) rotate(90.000000) translate(-8.000000, -1.500000) " x="7.5" y="-5.5" width="1" height="14"></rect>
            </g>
        </g>
    </g>
</svg>