<?xml version="1.0" encoding="UTF-8" standalone="no"?>
<svg width="27px" height="30px" viewBox="0 0 27 30" version="1.1" xmlns="http://www.w3.org/2000/svg" xmlns:xlink="http://www.w3.org/1999/xlink" xmlns:sketch="http://www.bohemiancoding.com/sketch/ns">
    <!-- Generator: Sketch 3.3 (11970) - http://www.bohemiancoding.com/sketch -->
    <title>woman</title>
    <desc>Created with Sketch.</desc>
    <defs></defs>
    <g id="Page-1" stroke="none" stroke-width="1" fill="none" fill-rule="evenodd" sketch:type="MSPage">
        <path d="M25.79945,27.1153608 C25.7375943,27.0219588 25.6828521,26.8929897 25.5749139,26.7664948 C25.2622335,26.3771134 24.6245016,25.8980412 23.8370789,25.4724742 C21.9591407,24.4580412 18.6489345,23.2571134 18.0412026,22.8801031 C17.7826459,22.7195876 16.7221304,22.1638144 16.8619242,21.0881443 C16.8978005,20.891134 16.9531614,20.683299 17.0314088,20.4674227 C17.1557387,20.2336082 17.4201717,19.7576289 18.32945,19.4103093 C19.2387284,19.0629897 25.3179036,17.6270103 25.5306871,15.6383505 C20.9651201,15.5907216 21.5153263,10.8794845 21.1955325,7.30484536 C20.81945,3.10886598 17.8646047,0 13.3630583,0 C8.86089331,0 6.37120259,3.16824742 5.53089331,7.30484536 C4.82604795,10.7730928 5.43192424,15.7101031 0.939656198,15.4769072 C0.919553105,17.6669072 7.42522321,19.0623711 8.38522321,19.4226804 C9.34522321,19.783299 9.55584177,20.2373196 9.67800671,20.4674227 C9.75656341,20.683299 9.81161496,20.891134 9.84718197,21.0881443 C9.98697579,22.1638144 8.92738816,22.721134 8.66790362,22.8801031 C8.02305826,23.2747423 4.75027475,24.4580412 2.87202733,25.4724742 C2.08491393,25.8980412 1.44718197,26.3771134 1.13450156,26.7664948 C1.02625414,26.8929897 0.973986095,27.0235052 0.909965476,27.1153608 C0.361924239,27.8969072 -0.0221994721,28.8705155 0.000996404229,29.8370103 L26.7545016,29.8370103 C26.7968727,29.1030928 26.5574912,28.2578351 25.79945,27.1153608" id="woman" fill="#000000" sketch:type="MSShapeGroup"></path>
    </g>
</svg>