<svg width="22" height="20" viewBox="0 0 22 20" xmlns="http://www.w3.org/2000/svg"><path d="M.677 1.404h2.087l1.298 15.5s1.233 2.745 2.706 2.745c1.26 0 2.318-.897 2.62-2.106h2.886c.302 1.21 1.36 2.105 2.618 2.105 1.493 0 2.708-1.26 2.708-2.808 0-1.548-1.215-2.807-2.708-2.807-1.26 0-2.316.897-2.618 2.105H9.388c-.302-1.208-1.36-2.105-2.62-2.105-.573 0-1.105.188-1.544.505l-.19-2.263.076.003 13.877-.702c.29-.014.538-.22.618-.508l2.03-7.368c.06-.212.018-.44-.11-.616-.128-.175-.328-.28-.54-.28H4.24L4.06.642C4.027.28 3.735 0 3.384 0H.677C.303 0 0 .314 0 .702c0 .387.303.702.677.702zM14.892 15.44c.747 0 1.354.628 1.354 1.402 0 .774-.607 1.404-1.354 1.404-.746 0-1.354-.63-1.354-1.404 0-.774.608-1.403 1.354-1.403zm-8.123 0c.746 0 1.353.628 1.353 1.402 0 .774-.607 1.404-1.354 1.404-.747 0-1.355-.63-1.355-1.404 0-.774.608-1.403 1.354-1.403zM20.086 4.21l-1.65 5.99-13.393.678c-.043.002-.085.01-.125.02L4.357 4.21h15.73z" fill="#0B0B0A" fill-rule="evenodd"/></svg>