<?xml version="1.0" encoding="UTF-8" standalone="no"?>
<svg width="343px" height="343px" viewBox="0 0 343 343" version="1.1" xmlns="http://www.w3.org/2000/svg" xmlns:xlink="http://www.w3.org/1999/xlink" xmlns:sketch="http://www.bohemiancoding.com/sketch/ns">
    <!-- Generator: Sketch 3.0.4 (8053) - http://www.bohemiancoding.com/sketch -->
    <title>instagram</title>
    <desc>Created with Sketch.</desc>
    <defs>
        <path id="path-1" d="M0,-0.06 L342.067,-0.06 L342.067,341.94 L0,341.94 L0,-0.06 Z"></path>
    </defs>
    <g id="Page-1" stroke="none" stroke-width="1" fill="none" fill-rule="evenodd" sketch:type="MSPage">
        <g id="instagram" sketch:type="MSLayerGroup" transform="translate(0.000000, 1.000000)">
            <mask id="mask-2" sketch:name="Clip 2" fill="white">
                <use xlink:href="#path-1"></use>
            </mask>
            <g id="Clip-2"></g>
            <path d="M308.741,275.9 C308.741,293.979 294.038,308.674 275.959,308.674 L66.108,308.674 C48.029,308.674 33.327,293.979 33.327,275.9 L33.327,135.861 L84.388,135.861 C79.981,146.71 77.502,158.555 77.502,170.974 C77.502,222.534 119.454,264.505 171.034,264.505 C222.614,264.505 264.565,222.534 264.565,170.974 C264.565,158.555 262.073,146.71 257.665,135.861 L308.741,135.861 L308.741,275.9 L308.741,275.9 Z M122.216,135.861 C133.165,120.701 150.94,110.762 171.034,110.762 C191.127,110.762 208.901,120.701 219.852,135.861 C226.981,145.76 231.245,157.861 231.245,170.974 C231.245,204.159 204.219,231.166 171.034,231.166 C137.835,231.166 110.829,204.159 110.829,170.974 C110.829,157.861 115.087,145.76 122.216,135.861 L122.216,135.861 Z M294.92,39.365 L302.481,39.338 L302.481,97.313 L244.694,97.501 L244.499,39.526 L294.92,39.365 L294.92,39.365 Z M275.959,-0.06 L66.108,-0.06 C29.655,-0.06 0,29.588 0,66.041 L0,275.9 C0,312.354 29.655,342 66.108,342 L275.959,342 C312.413,342 342.067,312.354 342.067,275.9 L342.067,66.041 C342.067,29.588 312.413,-0.06 275.959,-0.06 L275.959,-0.06 Z" id="Fill-1" fill="#1A1918" sketch:type="MSShapeGroup" mask="url(#mask-2)"></path>
        </g>
    </g>
</svg>