<svg width="96" height="53" viewBox="0 0 96 53" xmlns="http://www.w3.org/2000/svg"><g fill="#1A1918" fill-rule="evenodd"><path d="M31.953 12.857h.013v27.345c-.017.216 0 .44.047.675.094.73.45 1.17 1.067 1.327h-3.494l.31-.14c.52-.264.79-.65.806-1.164V11.626h-.028l-.604-.767c-.202-.25-.364-.435-.488-.56l-.673-.51-.21-.14h1.928l24.247 25.58v1.7L31.953 12.858M51.308 22.467l.006 7.178L28.48 5.628h2.67l-.14.254c-.03.047-.04.11-.023.186 0 .357.263.8.79 1.326l18.235 18.99h.014v-5.358l1.282 1.44M50.028 17.5V2.196c0-.216-.018-.45-.047-.7C49.9.94 49.65.56 49.22.36l-.308-.14h3.494c-.632.172-.99.612-1.07 1.326-.046.252-.06.466-.046.652l.015 16.597-1.277-1.293M57.603 36.15c1.72-1.46 2.573-3.423 2.557-5.892-.016-2.19-.913-4.252-2.694-6.193-1.832-1.956-4.39-4.564-7.666-7.825-1.683-1.632-2.517-3.31-2.5-5.036-.017-1.446.45-2.69 1.398-3.73.95-1.043 2.14-1.58 3.572-1.61 2.364-.03 4.114.64 5.25 2.01l.35.447h.21V4.97l-.49.16c-.31.108-.62.154-.927.138-.295 0-.575-.03-.84-.092l-1.37-.303c-.85-.168-1.626-.26-2.324-.276-2.28.032-4.27.746-5.973 2.144-1.78 1.46-2.665 3.33-2.648 5.612-.018 1.583.61 3.205 1.88 4.866.558.76 1.163 1.45 1.817 2.072l7.244 7.196c1.264 1.305 1.903 2.83 1.92 4.57.014 1.602-.485 2.994-1.496 4.175v1.7l1.203-1.368c1.14-1.44 1.523-3.182 1.556-4.644-.016-2.02-.83-3.856-2.44-5.503l-7.527-7.73c-.95-.948-1.696-1.94-2.24-2.982-.452-.79-.67-1.675-.654-2.654 0-1.6.612-2.935 1.84-4.007l.688-.56.043-.01c-.903 1.027-1.338 2.432-1.307 4.22 0 1.864.866 3.667 2.6 5.41l7.74 7.892c1.68 1.724 2.52 3.486 2.52 5.285 0 1.958-.557 3.98-2.274 5.53l.98.34M53.557 10.656c-1.782 1.46-2.667 3.33-2.65 5.61-.017 1.584.61 3.206 1.883 4.868.56.76 1.164 1.45 1.816 2.07l7.242 7.197c1.265 1.306 1.903 2.83 1.92 4.572.016 1.602-.482 2.993-1.493 4.174-1.01 1.18-2.324 1.77-3.942 1.77-2.225-.014-4.138-.683-5.74-2.01-.62-.484-1.19-1.084-1.703-1.803l-.465-.656h-.186v3.95c.26.015.456.007.58-.025l.675-.05c.354.016.99.214 1.906.598 1.983.842 3.812 1.263 5.488 1.263 2.42-.014 4.456-.72 6.114-2.118 1.72-1.46 2.572-3.423 2.56-5.89-.018-2.19-.916-4.254-2.697-6.195-1.833-1.955-4.388-4.564-7.666-7.825-1.684-1.63-2.518-3.31-2.5-5.035-.018-1.446.16-2.114 1.11-3.155l-.793-.323c-.903 1.026-1.613 2.178-1.58 3.967 0 1.863.865 3.665 2.6 5.407l7.736 7.895c1.683 1.722 2.524 3.484 2.524 5.285 0 1.956-.86 3.71-2.575 5.26l-.046.017c.872-1.633 1.325-3.178 1.356-4.64-.015-2.02-.83-3.856-2.44-5.504l-7.526-7.73c-.95-.946-1.698-1.94-2.24-2.982-.453-.79-.67-1.675-.655-2.654 0-1.6.614-2.934 1.84-4.004l.633-.64-1.086-.664M34.27 14.85V40.2c-.017.218 0 .443.048.675.093.73.448 1.172 1.067 1.33H31.89l.31-.14c.52-.265.79-.652.806-1.165V13.62l1.263 1.23M6.433 50.71l-.012-1.957c0-.982-.036-1.43-.146-1.776-.33-1.072-1.456-1.738-2.938-1.738-1.13-.002-1.967.393-2.77 1.27v-1.205H.03l.045 4.006-.012 1.252-.02 1.117v.423h.54l-.04-1.8-.007-.256v-1.53l.022-1.17v-.243c.686-1.02 1.617-1.537 2.77-1.537 1.425 0 2.418.774 2.592 2.023.034.316.043.64.043 2.16l-.034 2.35.076.003h.466l-.032-1.13-.003-.264M13.31 46.985l-.076-.116c-.256-.385-.395-.545-.58-.718-.63-.572-1.51-.913-2.36-.913-1.91-.002-3.464 1.56-3.464 3.48 0 1.24.67 2.395 1.744 3.015.71.4 1.02.456 2.558.456h2.048v-.557l-.09.02c-.605.132-1.43.21-2.204.21-.992 0-1.513-.12-2.067-.478-.91-.57-1.472-1.66-1.472-2.844 0-.592.133-1.087.408-1.555h5.555zm-3.126-1.408c.906 0 1.85.46 2.293 1.08H8.013c.642-.745 1.3-1.08 2.17-1.08zM23.376 45.305H22.9l.045 3.56c0 1.17-.107 1.667-.453 2.123-.41.53-1.055.888-1.603.888-.515 0-1.055-.25-1.487-.683-.456-.465-.615-1.042-.615-2.204l.025-2.684.02-1.003-.074.002h-.466l.046 3.248c0 1.348-.077 1.843-.357 2.296-.378.604-1.075 1.026-1.7 1.026-.49 0-1.065-.272-1.464-.692-.49-.493-.626-1.025-.626-2.475l.033-3.405h-.54l.002.075c.034 2.602.068 4.273.088 4.585.092 1.29 1.145 2.227 2.506 2.227.46 0 .92-.127 1.33-.368.472-.273.75-.6.962-1.113.352.875 1.262 1.482 2.302 1.482 1.156 0 2.173-.754 2.414-1.79.09-.41.113-.692.103-1.906l.056-3.19h-.074M31.35 48.442c-.624-.302-1.405-.433-2.7-.455-1.032-.024-1.17-.047-1.42-.16-.32-.157-.513-.457-.513-.805 0-.86.972-1.455 2.367-1.455 1.317 0 2.22.475 2.608 1.374l.022.045h.548l-.042-.104c-.133-.32-.205-.454-.392-.678-.528-.62-1.475-.963-2.666-.963-1.71-.002-2.95.765-2.95 1.826 0 .424.225.812.603 1.037.288.157.68.223 1.31.223 1.35 0 1.793.03 2.255.165.95.26 1.474.825 1.474 1.594 0 1.05-1.07 1.78-2.602 1.78-1.28 0-2.298-.62-2.72-1.662l-.02-.048h-.523l.036.1c.214.6.49.957 1.02 1.323.612.41 1.326.614 2.116.614 1.81 0 3.174-.937 3.174-2.183 0-.652-.397-1.28-.987-1.565M38.722 50.35c-.557.982-1.413 1.526-2.412 1.526-.93 0-1.843-.486-2.38-1.264-.406-.593-.523-1.074-.523-2.14l.012-2.152v-.52h5.016v-.317H33.42l.01-.982h-.517v.934l.023 1.13-.01 1.16v.973c0 .903.178 1.503.637 2.135.62.838 1.668 1.36 2.737 1.36 1.228 0 2.337-.66 2.963-1.768l.064-.112h-.584l-.02.038M45.044 45.305l.035 2.376-.034 2.424c-.23.327-.363.48-.547.665-.572.538-1.33.85-2.08.85-.74 0-1.436-.302-1.906-.826-.453-.497-.584-.957-.584-2.05l.046-3.438h-.528v.33l.034 2.224v.928c-.012 1.248.173 1.84.738 2.346.558.502 1.355.79 2.19.79 1.037 0 1.833-.382 2.63-1.233-.017.398-.054.592-.155.803-.322.7-1.15 1.054-2.464 1.054-.748 0-1.466-.072-2.327-.234l-.087-.018v.566l.463.014 2.535-.023c1.208-.078 1.937-.465 2.294-1.215.16-.335.22-.812.22-1.82V47.67l.03-1.486.027-.88h-.533M48.187 51.764h-1.5l-.023-1.472-.01-.677.035-5.114h-.53v.555l.046 2.65-.046 4.398h2.027l2.308-.012.77.013h.32v-.567l-.087.016c-1.014.187-1.387.212-3.31.212M58.15 46.985l-.077-.116c-.26-.39-.394-.543-.58-.718-.628-.572-1.51-.913-2.358-.913-1.91-.002-3.465 1.56-3.465 3.48 0 1.24.668 2.395 1.745 3.015.71.4 1.02.456 2.554.456h2.048v-.557l-.09.02c-.604.132-1.427.21-2.203.21-.993 0-1.514-.12-2.068-.478-.908-.57-1.47-1.66-1.47-2.844 0-.59.132-1.086.407-1.555h5.556zm-3.127-1.408c.907 0 1.85.46 2.292 1.08h-4.462c.64-.745 1.296-1.08 2.17-1.08zM65.827 48.442c-.623-.302-1.404-.433-2.696-.455-1.032-.024-1.17-.047-1.42-.16-.32-.156-.512-.457-.512-.805 0-.86.972-1.455 2.367-1.455 1.316 0 2.217.475 2.608 1.374l.02.045h.55l-.043-.104c-.132-.32-.204-.452-.39-.676-.532-.623-1.478-.965-2.67-.965-1.708-.002-2.95.765-2.95 1.826 0 .424.227.812.606 1.037.288.157.68.223 1.31.223 1.35 0 1.79.03 2.255.165.95.26 1.473.825 1.473 1.594 0 1.05-1.07 1.78-2.6 1.78-1.28 0-2.297-.62-2.72-1.662l-.02-.048h-.523l.035.1c.212.588.497.96 1.02 1.32.614.412 1.326.617 2.116.617 1.81 0 3.177-.937 3.177-2.183 0-.652-.4-1.28-.99-1.565M73.2 50.35c-.555.982-1.412 1.526-2.41 1.526-.932 0-1.843-.486-2.38-1.264-.406-.59-.522-1.072-.522-2.14l.01-2.152v-.52h5.02v-.317h-5.02c0-.127.01-.982.01-.982h-.517v.934l.025 1.13-.012 1.16v.973c0 .902.18 1.5.64 2.135.62.838 1.668 1.36 2.736 1.36 1.228 0 2.334-.66 2.96-1.768l.065-.112h-.582l-.022.038M80.184 46.032l.015-.725-.075-.002h-.456l.045 2.095c0 1.856-.01 2.576-.043 2.956-.715 1.01-1.57 1.52-2.604 1.52-.986 0-1.877-.51-2.265-1.3-.215-.432-.246-.687-.246-1.945l.03-2.858v-.467h-.538l.014.812.006.337.027 2.392c.01.787.01.907.066 1.27.162 1.203 1.377 2.076 2.893 2.076 1.03 0 1.905-.433 2.62-1.26 0 .134-.005.28-.005.28l-.025.89h.542l-.01-1.092-.023-2.692.022-1.71.008-.576M87.346 47.068l.033-1.653.01-.915h-.505v.31l.01 1.206s-.003.29-.007.478l-.247-.255c-.672-.665-1.51-1.003-2.478-1.003-1.942 0-3.523 1.567-3.523 3.495 0 1.35.824 2.595 2.096 3.174.556.243.867.286 2.07.286h2.584l-.055-3.763.01-1.362zm-.45 2.02l-.066 2.722-2.1.054c-.727 0-1.113-.055-1.535-.218-1.214-.446-2.028-1.7-2.028-3.127 0-1.684 1.29-2.955 3.006-2.955.804 0 1.552.278 2.1.785.223.2.364.373.612.752l.01 1.987zM88.077 45.305v1.146l-.056 4.09-.044 1.565.076-.002h.465v-.243l-.01-2.022c0-1.1.066-3.806.11-4.454l.005-.08h-.545M92.535 45.237c-1.91 0-3.465 1.558-3.465 3.472 0 1.92 1.56 3.482 3.476 3.482 1.91 0 3.466-1.552 3.466-3.46 0-1.96-1.527-3.495-3.477-3.495m.09 6.616c-.897 0-1.716-.388-2.252-1.067-.5-.62-.8-1.468-.8-2.268 0-1.65 1.27-2.94 2.884-2.94 1.71 0 3.05 1.468 3.05 3.343 0 1.62-1.293 2.933-2.883 2.933"/></g></svg>