<?xml version="1.0" encoding="UTF-8" standalone="no"?>
<svg width="96px" height="53px" viewBox="0 0 96 53" version="1.1" xmlns="http://www.w3.org/2000/svg" xmlns:xlink="http://www.w3.org/1999/xlink" xmlns:sketch="http://www.bohemiancoding.com/sketch/ns">
    <!-- Generator: Sketch 3.3 (11970) - http://www.bohemiancoding.com/sketch -->
    <title>italbags</title>
    <desc>Created with Sketch.</desc>
    <defs></defs>
    <g id="Page-1" stroke="none" stroke-width="1" fill="none" fill-rule="evenodd" sketch:type="MSPage">
        <g id="italbags" sketch:type="MSLayerGroup" fill="#1A1918">
            <path d="M31.9534167,12.8574 L31.9655417,12.8574 L31.9655417,40.20165 C31.949375,40.41765 31.9655417,40.6431 32.0126944,40.87665 C32.107,41.60565 32.4626667,42.0471 33.0796944,42.2037 L29.5863472,42.2037 L29.8948611,42.06465 C30.4162361,41.80005 30.6856806,41.4126 30.7018472,40.8996 L30.7018472,11.6262 L30.6735556,11.6262 L30.07,10.8594 C29.8679167,10.611 29.70625,10.4247 29.5823056,10.3005 L28.9086944,9.78885 L28.6985278,9.6498 L30.62775,9.6498 L54.8750556,35.23095 L54.8750556,36.9306 L31.9534167,12.8574" id="Fill-1" sketch:type="MSShapeGroup"></path>
            <path d="M51.3076111,22.4667 L51.3143472,29.64465 L28.4789306,5.62815 L31.1504722,5.62815 L31.0103611,5.88195 C30.979375,5.9292 30.9699444,5.9913 30.9874583,6.06825 C30.9874583,6.42465 31.2501667,6.86745 31.7782778,7.39395 L50.0115833,26.3844 L50.0264028,26.3844 L50.0264028,21.02625 L51.3076111,22.4667" id="Fill-2" sketch:type="MSShapeGroup"></path>
            <path d="M50.02775,17.50005 L50.02775,2.19645 C50.02775,1.98045 50.0102361,1.7469 49.9805972,1.49715 C49.8997639,0.93825 49.6478333,0.56025 49.2207639,0.35775 L48.91225,0.2187 L52.4055972,0.2187 C51.77375,0.39015 51.4167361,0.83025 51.33725,1.5444 C51.2900972,1.7955 51.2752778,2.01015 51.2900972,2.19645 L51.3049167,18.79335 L50.02775,17.50005" id="Fill-3" sketch:type="MSShapeGroup"></path>
            <path d="M57.6031806,36.1503 C59.3235833,34.6896 60.176375,32.7267 60.1602083,30.25755 C60.1440417,28.0692 59.2467917,26.0064 57.4657639,24.0651 C55.6335417,22.10895 53.0765139,19.50075 49.8000694,16.2405 C48.1173889,14.60835 47.2834583,12.92895 47.299625,11.20365 C47.2834583,9.7578 47.7495972,8.51445 48.6980417,7.4736 C49.6478333,6.4314 50.8374306,5.89545 52.2695278,5.86305 C54.6339028,5.83335 56.3839444,6.50295 57.5196528,7.8732 L57.8685833,8.3214 L58.0800972,8.3214 L58.0800972,4.96935 L57.5910556,5.13 C57.2811944,5.238 56.9713333,5.2839 56.6628194,5.2677 C56.3677778,5.2677 56.0875556,5.238 55.8235,5.1759 L54.453375,4.8735 C53.6019306,4.70475 52.8272778,4.6143 52.1294167,4.59675 C49.8512639,4.62915 47.8587222,5.3433 46.1571806,6.74055 C44.3761528,8.1999 43.492375,10.071 43.5085417,12.3525 C43.492375,13.9347 44.1188333,15.5574 45.3906111,17.2179 C45.9483611,17.9793 46.5532639,18.66915 47.2066667,19.29015 L54.4506806,26.48565 C55.714375,27.7911 56.3529583,29.31525 56.369125,31.05675 C56.3839444,32.65785 55.8854722,34.0497 54.8737083,35.23095 L54.8737083,36.9306 L56.0767778,35.5617 C57.217875,34.12125 57.6004861,32.37975 57.6328194,30.9177 C57.6166528,28.89675 56.8042778,27.0621 55.1943472,25.4151 L47.6660694,17.68365 C46.7162778,16.7373 45.9699167,15.7437 45.4256389,14.70285 C44.9743194,13.91175 44.7560694,13.0275 44.7722361,12.04875 C44.7722361,10.449 45.383875,9.1152 46.6111944,8.0433 L47.299625,7.4844 L47.3427361,7.47225 C46.4400972,8.4996 46.0049444,9.90495 46.0359306,11.69235 C46.0359306,13.5567 46.9021944,15.3603 48.6374167,17.1018 L56.3745139,24.99525 C58.0558472,26.7192 58.8965139,28.48095 58.8965139,30.2805 C58.8965139,32.238 58.3387639,34.25895 56.6224028,35.8101 L57.6031806,36.1503" id="Fill-4" sketch:type="MSShapeGroup"></path>
            <path d="M53.5574722,10.65555 C51.7750972,12.1149 50.8899722,13.986 50.9074861,16.2675 C50.8899722,17.8497 51.5177778,19.4724 52.7895556,21.13425 C53.3486528,21.8943 53.9535556,22.5855 54.6056111,23.20515 L61.8482778,30.40065 C63.1133194,31.7061 63.7505556,33.23025 63.7694167,34.97175 C63.7842361,36.5742 63.2857639,37.9647 62.2753472,39.14595 C61.2649306,40.3272 59.9513889,40.91715 58.333375,40.91715 C56.1077639,40.9023 54.1947083,40.2327 52.5942083,38.90565 C51.9717917,38.42235 51.4032639,37.8216 50.8899722,37.1034 L50.4251806,36.4473 L50.2392639,36.4473 L50.2392639,40.39605 C50.500625,40.41225 50.6959722,40.40415 50.8199167,40.37175 L51.494875,40.3218 C51.8491944,40.338 52.4850833,40.53645 53.4011944,40.91985 C55.3829583,41.76225 57.2124861,42.18345 58.8884306,42.18345 C61.3066944,42.1686 63.3436944,41.46255 65.002125,40.0653 C66.7211806,38.60595 67.5739722,36.6417 67.5605,34.1739 C67.5443333,31.98555 66.6457361,29.9214 64.8647083,27.9801 C63.0324861,26.0253 60.4768056,23.41575 57.1990139,20.1555 C55.5163333,18.5247 54.6824028,16.8453 54.6999167,15.12 C54.6824028,13.67415 54.8602361,13.0059 55.8086806,11.96505 L55.0165139,11.6424 C54.113875,12.6684 53.4038889,13.81995 53.4362222,15.6087 C53.4362222,17.47305 54.3024861,19.2753 56.0377083,21.0168 L63.7734583,28.9116 C65.4561389,30.6342 66.2968056,32.39595 66.2968056,34.19685 C66.2968056,36.153 65.4372778,37.908 63.7222639,39.4578 L63.6764583,39.474 C64.5481111,37.8405 65.0007778,36.2961 65.0317639,34.83405 C65.0169444,32.8131 64.201875,30.97845 62.5932917,29.3301 L55.0663611,21.6 C54.1165694,20.65365 53.3675139,19.6587 52.8259306,18.61785 C52.3732639,17.82675 52.1550139,16.9425 52.1711806,15.96375 C52.1711806,14.36535 52.7841667,13.0302 54.0101389,11.95965 L54.6433333,11.31975 L53.5574722,10.65555" id="Fill-5" sketch:type="MSShapeGroup"></path>
            <path d="M34.2692917,14.85 L34.2692917,40.2003 C34.253125,40.41765 34.2692917,40.6431 34.3177917,40.8753 C34.41075,41.60565 34.7664167,42.0471 35.3847917,42.2037 L31.8900972,42.2037 L32.1999583,42.06465 C32.7213333,41.80005 32.9894306,41.4126 33.0055972,40.8996 L33.0055972,13.6188 L34.2692917,14.85" id="Fill-6" sketch:type="MSShapeGroup"></path>
            <path d="M6.43298611,50.7087 L6.42086111,48.75255 C6.42086111,47.7711 6.38448611,47.3229 6.27401389,46.9773 C5.94259722,45.9054 4.81766667,45.2385 3.33572222,45.2385 C2.20675,45.2385 1.36877778,45.6327 0.567180556,46.5102 L0.567180556,45.30465 L0.0282916667,45.30465 L0.07275,49.31145 L0.060625,50.56155 C0.060625,50.5629 0.0390694444,51.67935 0.0390694444,51.67935 L0.0390694444,52.10325 L0.579305556,52.10325 L0.538888889,50.30235 L0.5335,50.0472 L0.5335,48.51765 L0.555055556,47.34585 L0.555055556,47.1042 C1.24079167,46.08495 2.17172222,45.56655 3.32494444,45.56655 C4.75030556,45.56655 5.74320833,46.34145 5.917,47.5902 C5.95068056,47.9061 5.96011111,48.22875 5.96011111,49.74885 L5.92643056,52.10055 L6.001875,52.10325 L6.46801389,52.10325 L6.43568056,50.9733 L6.43298611,50.7087" id="Fill-7" sketch:type="MSShapeGroup"></path>
            <path d="M13.3105556,46.9854 L13.2337639,46.8693 C12.9777917,46.48455 12.8390278,46.32525 12.6544583,46.15245 C12.0253056,45.58005 11.1442222,45.2385 10.2954722,45.2385 C8.38511111,45.2385 6.83041667,46.7991 6.83041667,48.72015 C6.83041667,49.9608 7.49863889,51.11505 8.57372222,51.7347 C9.28370833,52.13565 9.59491667,52.191 11.1320972,52.191 L13.179875,52.191 L13.179875,51.63345 L13.0896111,51.6537 C12.4847083,51.78465 11.6602083,51.8643 10.8855556,51.8643 C9.894,51.8643 9.372625,51.7428 8.81891667,51.38505 C7.91088889,50.814 7.34775,49.7259 7.34775,48.5406 C7.34775,47.94795 7.481125,47.4525 7.75595833,46.9854 L13.3105556,46.9854 L13.3105556,46.9854 Z M10.1836528,45.57735 C11.0903333,45.57735 12.0333889,46.0377 12.476625,46.65735 L8.01327778,46.65735 C8.65455556,45.91215 9.312,45.57735 10.1836528,45.57735 L10.1836528,45.57735 Z" id="Fill-8" sketch:type="MSShapeGroup"></path>
            <path d="M23.3756528,45.30465 L22.9000833,45.30465 L22.9445417,48.86595 C22.9445417,50.0364 22.8381111,50.53185 22.491875,50.98815 C22.0809722,51.5187 21.437,51.87645 20.8886806,51.87645 C20.3753889,51.87645 19.8351528,51.6267 19.4026944,51.19335 C18.9473333,50.7276 18.7883611,50.15115 18.7883611,48.9888 L18.8126111,46.30635 L18.8341667,45.3033 L18.7587222,45.30465 L18.2939306,45.30465 L18.3397361,48.55275 C18.3397361,49.9014 18.2629444,50.3955 17.9827222,50.8491 C17.6055,51.4539 16.9076389,51.87645 16.283875,51.87645 C15.7921389,51.87645 15.2182222,51.60375 14.8194444,51.1839 C14.3290556,50.69115 14.1943333,50.15925 14.1943333,48.70935 L14.2266667,45.30465 L13.6877778,45.30465 L13.689125,45.38025 C13.7241528,47.9817 13.7578333,49.653 13.7780417,49.96485 C13.8696528,51.25545 14.9231806,52.19235 16.283875,52.19235 C16.7432778,52.19235 17.2026806,52.06545 17.6149306,51.8238 C18.0864583,51.5511 18.3626389,51.2244 18.5755,50.7114 C18.9284722,51.58485 19.8378472,52.19235 20.8779028,52.19235 C22.0338194,52.19235 23.0509722,51.4377 23.292125,50.40225 C23.3810417,49.9932 23.4052917,49.7097 23.3945139,48.49605 L23.4510972,45.306 L23.3756528,45.30465" id="Fill-9" sketch:type="MSShapeGroup"></path>
            <path d="M31.3485139,48.44205 C30.7260972,48.13965 29.9447083,48.0087 28.651375,47.9871 C27.6180556,47.9628 27.4792917,47.93985 27.2300556,47.82645 C26.9107639,47.66985 26.7167639,47.37015 26.7167639,47.02185 C26.7167639,46.16325 27.6894583,45.56655 29.0838333,45.56655 C30.4014167,45.56655 31.3040556,46.04175 31.6920556,46.94085 L31.7136111,46.9854 L32.2619306,46.9854 L32.2201667,46.88145 C32.0867917,46.56015 32.0153889,46.4265 31.828125,46.2024 C31.3000139,45.5814 30.3529167,45.2385 29.1619722,45.2385 C27.4523472,45.2385 26.2115556,46.0053 26.2115556,47.0664 C26.2115556,47.4903 26.4365417,47.87775 26.8151111,48.1032 C27.1034167,48.2598 27.4954583,48.32595 28.1259583,48.32595 C29.4745278,48.32595 29.9177639,48.357 30.3798611,48.49065 C31.331,48.74985 31.8537222,49.3155 31.8537222,50.08365 C31.8537222,51.1326 30.7840278,51.8643 29.2522361,51.8643 C27.9710278,51.8643 26.953875,51.2433 26.5321944,50.20245 L26.5133333,50.15385 L25.9892639,50.15385 L26.0256389,50.2551 C26.2398472,50.85315 26.517375,51.2109 27.0454861,51.57675 C27.6584722,51.9858 28.3725,52.191 29.1619722,52.191 C30.9712917,52.191 32.3360278,51.25275 32.3360278,50.0067 C32.3360278,49.35465 31.9385972,48.7269 31.3485139,48.44205" id="Fill-10" sketch:type="MSShapeGroup"></path>
            <path d="M38.7218611,50.3496 C38.1654583,51.3324 37.308625,51.87645 36.3103333,51.87645 C35.3794028,51.87645 34.4673333,51.39045 33.9297917,50.6115 C33.5242778,50.01885 33.4070694,49.53825 33.4070694,48.4731 L33.4191944,46.31985 L33.4191944,45.8001 L38.43625,45.8001 L38.43625,45.48285 L33.4191944,45.48285 C33.4218889,45.35595 33.4299722,44.5014 33.4299722,44.5014 L32.9126389,44.5014 L32.9126389,45.43425 L32.9355417,46.5642 L32.9247639,47.7252 L32.9247639,48.6972 C32.9247639,49.60035 33.1039444,50.19975 33.5633472,50.83155 C34.1830694,51.6699 35.2312083,52.19235 36.2995556,52.19235 C37.5282222,52.19235 38.6369861,51.53085 39.2634444,50.42385 L39.3267639,50.3118 L38.7434167,50.3118 L38.7218611,50.3496" id="Fill-11" sketch:type="MSShapeGroup"></path>
            <path d="M45.044375,45.30465 L45.0794028,47.68065 L45.0457222,50.1039 C44.8153472,50.4306 44.6833194,50.5845 44.49875,50.76945 C43.9275278,51.3081 43.1703889,51.6186 42.4213333,51.6186 C41.6790139,51.6186 40.9838472,51.31755 40.5136667,50.79375 C40.061,50.29695 39.9303194,49.8366 39.9303194,48.7431 L39.976125,45.306 L39.9020278,45.30465 L39.4480139,45.30465 L39.4480139,45.6354 C39.4480139,45.6381 39.4816944,47.8602 39.4816944,47.8602 L39.4816944,48.78765 C39.4695694,50.0364 39.6554861,50.6277 40.2199722,51.13395 C40.7777222,51.63615 41.5752778,51.9237 42.4105556,51.9237 C43.4465694,51.9237 44.2427778,51.54165 45.0389861,50.69115 C45.0228194,51.08805 44.9864444,51.28245 44.8854028,51.49305 C44.5634167,52.19235 43.734875,52.5474 42.4213333,52.5474 C41.6722778,52.5474 40.9542083,52.4745 40.0933333,52.3125 L40.0057639,52.29495 L40.0057639,52.8606 L40.4692083,52.8741 L43.0046806,52.85115 C44.2131389,52.7715 44.9419861,52.3854 45.299,51.6348 C45.4606667,51.3 45.5185972,50.82345 45.5185972,49.81635 L45.5185972,47.66985 L45.5509306,46.1835 L45.5765278,45.30465 L45.044375,45.30465" id="Fill-12" sketch:type="MSShapeGroup"></path>
            <path d="M48.1874444,51.7644 L46.6879861,51.7644 C46.6852917,51.6294 46.6637361,50.29155 46.6637361,50.29155 L46.6543056,49.6152 L46.6893333,44.5014 L46.6138889,44.50005 L46.159875,44.50005 L46.159875,45.0549 C46.159875,45.0576 46.2056806,47.7036 46.2056806,47.7036 L46.159875,52.10325 L48.1874444,52.10325 L50.4952361,52.0911 L51.2645,52.10325 L51.5837917,52.10325 L51.5837917,51.53625 L51.4975694,51.55245 C50.4844583,51.73875 50.1112778,51.7644 48.1874444,51.7644" id="Fill-13" sketch:type="MSShapeGroup"></path>
            <path d="M58.1501528,46.9854 L58.0733611,46.8693 C57.8133472,46.47915 57.678625,46.3266 57.4940556,46.15245 C56.8649028,45.58005 55.9838194,45.2385 55.1350694,45.2385 C53.2247083,45.2385 51.6700139,46.7991 51.6700139,48.72015 C51.6700139,49.9608 52.3382361,51.11505 53.4146667,51.7347 C54.1246528,52.13565 54.4345139,52.191 55.969,52.191 L58.018125,52.191 L58.018125,51.63345 L57.9278611,51.6537 C57.3243056,51.78465 56.5011528,51.8643 55.7251528,51.8643 C54.73225,51.8643 54.210875,51.7428 53.6571667,51.38505 C52.7491389,50.814 52.186,49.7259 52.186,48.5406 C52.186,47.9493 52.319375,47.45385 52.5942083,46.9854 L58.1501528,46.9854 L58.1501528,46.9854 Z M55.02325,45.57735 C55.9299306,45.57735 56.8743333,46.0377 57.314875,46.65735 L52.852875,46.65735 C53.4928056,45.91215 54.1489028,45.57735 55.02325,45.57735 L55.02325,45.57735 Z" id="Fill-14" sketch:type="MSShapeGroup"></path>
            <path d="M65.826625,48.44205 C65.2042083,48.13965 64.4228194,48.0087 63.1308333,47.9871 C62.0975139,47.9628 61.95875,47.93985 61.7108611,47.82645 C61.3902222,47.6712 61.1975694,47.37015 61.1975694,47.02185 C61.1975694,46.16325 62.1702639,45.56655 63.5646389,45.56655 C64.880875,45.56655 65.7821667,46.04175 66.1728611,46.94085 L66.1917222,46.9854 L66.7427361,46.9854 L66.699625,46.88145 C66.5675972,46.5615 66.4961944,46.42785 66.3089306,46.20375 C65.778125,45.5814 64.832375,45.2385 63.6414306,45.2385 C61.9318056,45.2385 60.6910139,46.0053 60.6910139,47.0664 C60.6910139,47.4903 60.9173472,47.87775 61.2959167,48.1032 C61.5842222,48.2598 61.9749167,48.32595 62.6054167,48.32595 C63.9553333,48.32595 64.3972222,48.357 64.8606667,48.49065 C65.8104583,48.74985 66.3331806,49.3155 66.3331806,50.08365 C66.3331806,51.1326 65.2634861,51.8643 63.7316944,51.8643 C62.4518333,51.8643 61.4360278,51.2433 61.0116528,50.20245 L60.9941389,50.15385 L60.4700694,50.15385 L60.5050972,50.2551 C60.7166111,50.84235 61.0022222,51.2136 61.5262917,51.57405 C62.1392778,51.9858 62.8506111,52.191 63.6414306,52.191 C65.45075,52.191 66.8168333,51.25275 66.8168333,50.0067 C66.8168333,49.35465 66.4180556,48.72555 65.826625,48.44205" id="Fill-15" sketch:type="MSShapeGroup"></path>
            <path d="M73.2013194,50.3496 C72.6449167,51.3324 71.7880833,51.87645 70.7897917,51.87645 C69.8575139,51.87645 68.9467917,51.39045 68.40925,50.6115 C68.0037361,50.02155 67.887875,49.5396 67.887875,48.4731 L67.8973056,46.31985 L67.8973056,45.8001 L72.9170556,45.8001 L72.9170556,45.48285 L67.8973056,45.48285 C67.8986528,45.35595 67.9094306,44.5014 67.9094306,44.5014 L67.39075,44.5014 L67.39075,45.43425 L67.415,46.5642 L67.402875,47.7252 L67.402875,48.6972 C67.402875,49.599 67.5834028,50.1984 68.0428056,50.83155 C68.6625278,51.6699 69.7106667,52.19235 70.7790139,52.19235 C72.0076806,52.19235 73.11375,51.53085 73.7402083,50.42385 L73.804875,50.3118 L73.222875,50.3118 L73.2013194,50.3496" id="Fill-16" sketch:type="MSShapeGroup"></path>
            <path d="M80.1839722,46.0323 L80.1987917,45.30735 L80.1246944,45.30465 L79.6693333,45.30465 L79.7151389,47.39985 C79.7151389,49.2561 79.7043611,49.97565 79.6720278,50.35635 C78.9566528,51.3675 78.1025139,51.87645 77.0678472,51.87645 C76.0816806,51.87645 75.1911667,51.36615 74.8031667,50.5764 C74.5876111,50.1444 74.556625,49.88925 74.556625,48.63105 L74.5876111,45.77175 L74.5876111,45.30465 L74.0487222,45.30465 L74.0635417,46.11735 L74.0702778,46.4535 L74.0972222,48.8457 C74.1066528,49.63275 74.108,49.7529 74.1632361,50.1174 C74.3249028,51.3189 75.5400972,52.19235 77.0557222,52.19235 C78.0863472,52.19235 78.9606944,51.759 79.6774167,50.93145 C79.6747222,51.06645 79.6706806,51.2109 79.6706806,51.2109 L79.6450833,52.10325 L80.1866667,52.10325 L80.1758889,51.00975 C80.1758889,51.0084 80.1543333,48.31785 80.1543333,48.31785 L80.1758889,46.60875 L80.1839722,46.0323" id="Fill-17" sketch:type="MSShapeGroup"></path>
            <path d="M87.3458056,47.06775 L87.3794861,45.41535 L87.3902639,44.50005 L86.8850556,44.50005 L86.8850556,44.8092 L86.8958333,46.0161 C86.8958333,46.0161 86.8917917,46.30635 86.88775,46.494 C86.7772778,46.3806 86.6412083,46.23885 86.6412083,46.23885 C85.9675972,45.57465 85.1309722,45.23715 84.1623194,45.23715 C82.219625,45.23715 80.6393333,46.8045 80.6393333,48.7323 C80.6393333,50.08095 81.4638333,51.327 82.7356111,51.90615 C83.2920139,52.14915 83.6032222,52.19235 84.8062917,52.19235 L87.3902639,52.19235 L87.3350278,48.42855 L87.3458056,47.06775 L87.3458056,47.06775 Z M86.8958333,49.0887 C86.8958333,49.0887 86.8338611,51.678 86.8298194,51.8103 C86.6991389,51.81435 84.7295,51.8643 84.7295,51.8643 C84.0033472,51.8643 83.6166944,51.80895 83.1950139,51.6456 C81.9811667,51.2001 81.1674444,49.9446 81.1674444,48.519 C81.1674444,46.83555 82.4580833,45.5652 84.1730972,45.5652 C84.9773889,45.5652 85.7250972,45.8433 86.2734167,46.34955 C86.4957083,46.5507 86.6371667,46.7235 86.8850556,47.1015 C86.8850556,47.1447 86.8958333,49.0887 86.8958333,49.0887 L86.8958333,49.0887 Z" id="Fill-18" sketch:type="MSShapeGroup"></path>
            <path d="M88.0773472,45.30465 L88.0773472,46.4508 L88.0207639,50.53995 L87.9763056,52.1046 L88.05175,52.10325 L88.5165417,52.10325 L88.5165417,51.86025 L88.5057639,49.83795 C88.5057639,48.7377 88.573125,46.0323 88.6162361,45.3843 L88.621625,45.30465 L88.0773472,45.30465" id="Fill-19" sketch:type="MSShapeGroup"></path>
            <path d="M92.5353056,45.23715 C90.6262917,45.23715 89.07025,46.79505 89.07025,48.70935 C89.07025,50.6304 90.6289861,52.19235 92.5460833,52.19235 C94.4564444,52.19235 96.0124861,50.63985 96.0124861,48.73095 C96.0124861,46.77075 94.4847361,45.23715 92.5353056,45.23715 M92.6242222,51.8535 C91.7283194,51.8535 90.9092083,51.4647 90.3730139,50.78565 C89.8731944,50.16465 89.5741111,49.3182 89.5741111,48.51765 C89.5741111,46.8693 90.8418472,45.57735 92.4571667,45.57735 C94.1667917,45.57735 95.5059306,47.04615 95.5059306,48.9213 C95.5059306,50.5386 94.2139444,51.8535 92.6242222,51.8535" id="Fill-20" sketch:type="MSShapeGroup"></path>
        </g>
    </g>
</svg>