<svg width="20" height="21" viewBox="0 0 20 21" xmlns="http://www.w3.org/2000/svg"><g fill="#FFF" fill-rule="evenodd"><path d="M3.57 5.73c-.447-.446-.438-1.182.02-1.64.458-.458 1.194-.467 1.64-.02.447.446.438 1.182-.02 1.64-.458.458-1.194.467-1.64.02zm1.178-1.178c-.187-.188-.496-.184-.688.008-.192.192-.196.5-.01.69.19.186.498.182.69-.01.192-.192.196-.5.008-.688zM17.887 18.196l-7.813-7.813c-.13-.13-.127-.343.006-.476.133-.133.346-.136.476-.006l7.813 7.814c.13.13.126.343-.007.476-.133.133-.346.136-.476.006z" id="Shape"/><path d="M1.7 10.667C-.58 8.39-.53 4.637 1.803 2.304 4.14-.03 7.89-.078 10.167 2.2c1.684 1.684 2.145 4.26 1.18 6.478l8.27 8.27c.063.063.098.148.097.237l-.024 1.88c0 .09-.038.176-.102.24l-1.1 1.102c-.065.063-.15.1-.24.1l-1.252.017c-.09 0-.175-.033-.237-.096l-1.787-1.786c-.075-.075-.11-.182-.09-.29l.07-.42-.422.07c-.106.018-.213-.016-.288-.09l-.75-.75c-.074-.075-.108-.182-.09-.288l.196-1.185-.794-.202c-.05-.012-.096-.037-.134-.07l-.49-.427-.188.19c-.133.132-.346.135-.476.005l-1.288-1.287c-.07-.072-.105-.173-.093-.275l.082-.653-.653.082c-.1.013-.203-.02-.274-.093l-1.113-1.114c-2.218.966-4.793.505-6.478-1.18zM9.684 2.68C7.667.665 4.343.706 2.275 2.775c-2.07 2.07-2.11 5.393-.094 7.41 1.543 1.543 3.93 1.928 5.936.957.13-.06.282-.036.38.063l1.163 1.162.91-.115c.205-.025.394.164.368.368l-.114.91.94.94.172-.172c.127-.127.328-.136.46-.02l.665.58 1.01.254c.166.042.27.203.242.374l-.218 1.315.51.51.71-.12c.212-.035.415.168.38.38l-.12.71 1.57 1.57.973-.013.902-.902.02-1.602-8.337-8.336c-.1-.1-.124-.252-.06-.38.97-2.008.584-4.394-.958-5.936z"/></g></svg>