<svg width="20" height="21" viewBox="0 0 20 21" xmlns="http://www.w3.org/2000/svg"><g id="Page-1" fill="none" fill-rule="evenodd"><g id="noun_55011_cc" transform="translate(-5 -3)" fill="#fff"><g id="key" transform="rotate(45 15.5 14) translate(3 8)"><path d="M3.87 7.175c-.63 0-1.144-.527-1.144-1.175S3.24 4.825 3.87 4.825c.633 0 1.147.527 1.147 1.175S4.503 7.175 3.87 7.175zm0-1.668c-.264 0-.48.22-.48.493 0 .272.217.493.48.493.266 0 .482-.22.482-.493 0-.272-.216-.493-.48-.493zM22.813 5.865h-11.05c-.185 0-.334-.153-.334-.34 0-.19.148-.342.332-.342h11.05c.184 0 .333.153.333.34 0 .19-.15.342-.332.342zM6.04 11.99C2.82 11.99.2 9.3.2 6S2.82.01 6.04.01c2.382 0 4.53 1.497 5.416 3.748h11.7c.087 0 .17.036.234.1l1.313 1.347c.062.064.097.15.097.24v1.56c0 .09-.035.176-.097.24l-.874.896c-.064.065-.148.1-.236.1h-2.527c-.106 0-.206-.05-.27-.14l-.247-.347-.248.348c-.063.09-.163.14-.27.14h-1.058c-.106 0-.206-.05-.268-.138l-.7-.977-.703.42c-.044.026-.094.04-.145.045l-.648.044V7.9c0 .19-.15.34-.333.34h-1.82c-.102 0-.197-.046-.26-.127l-.404-.52-.404.52c-.064.08-.16.128-.26.128h-1.575c-.885 2.253-3.033 3.75-5.416 3.75zm0-11.297C3.185.693.863 3.073.863 6c0 2.926 2.322 5.307 5.175 5.307 2.18 0 4.14-1.415 4.874-3.52.047-.137.172-.227.313-.227h1.643l.564-.726c.126-.162.393-.162.52 0l.563.726h1.328v-.245c0-.18.136-.328.31-.34l.882-.06.894-.533c.148-.087.336-.048.436.093l.776 1.085h.723l.417-.586c.125-.176.412-.176.537 0l.416.586h2.22l.68-.697V5.587l-1.12-1.147h-11.79c-.14 0-.265-.09-.312-.226C10.18 2.108 8.22.694 6.04.694z" id="Shape"/></g></g></g></svg>