<svg width="30" height="30" viewBox="0 0 30 30" xmlns="http://www.w3.org/2000/svg"><path d="M28.607 27.255c-.35-.434-1.06-.97-1.938-1.443-2.095-1.132-6.532-2.316-7.028-2.89-.222-.26-.76-1.157-.603-2.356.04-.22.1-.45.188-.692.554-1.042 1.776-1.886 2.057-3.965h.006c.124 0 .262-.015.413-.054.57-.148.773-1.14.773-1.14s.49-1.547.57-1.832c.082-.285.326-.895.245-1.547-.072-.58-.506-.876-.88-.87-.06-.002-.114.003-.168.015-.12.027-.417.074-.388-.08.212-1.175.326-2.06.326-3.217C22.18 3.217 18.964 0 14.995 0h-.031C10.996 0 7.78 3.217 7.78 7.185c0 1.156.113 2.042.326 3.217.027.154-.27.107-.39.08-.053-.012-.108-.017-.166-.015-.374-.006-.81.29-.88.87-.083.652.16 1.262.243 1.547.082.285.57 1.833.57 1.833s.204.99.773 1.14c.15.038.29.052.412.052h.006c.177 1.983 1.503 2.922 2.057 3.964.088.24.15.473.19.692.156 1.2-.38 2.097-.603 2.355-.497.576-4.933 1.76-7.027 2.892-.878.474-1.59 1.01-1.938 1.443-.787.64-1.248 1.614-1.352 2.58h29.84c-.13-1.04-.593-2.075-1.233-2.58z" fill="#000" fill-rule="evenodd"/></svg>