<svg width="40" height="41" viewBox="0 0 40 41" xmlns="http://www.w3.org/2000/svg"><g fill="none" fill-rule="evenodd"><path d="M38.5 39.458l-5.986-8.255V20.376c0-4.024-3.706-6.087-8.264-9.975m3.563 14.808l-6.532-6.53c-.982-.985-2.578-.985-3.56 0-.985.98-.985 2.577 0 3.562l5.707 7.75v3.655c0 1.485.1 2.9.96 4.108l1.25 1.747m-8.71-4.982H3.864C1.904 34.518.5 33.105.5 31.146V5.02C.5 3.063 2.103 1.46 4.063 1.46h16.625c1.96 0 2.83 1.67 2.83 3.63v11.87" stroke="#252324" stroke-linecap="round" stroke-linejoin="round"/><g fill="#252324"><path d="M7.03 7C6.46 7 6 7.462 6 8.03c0 .57.46 1.033 1.03 1.033.572 0 1.032-.464 1.032-1.032 0-.568-.46-1.03-1.03-1.03M11.688 6.896c-.554 0-1 .448-1 1 0 .55.446 1 1 1 .552 0 1-.45 1-1 0-.552-.448-1-1-1M16.438 6.896c-.553 0-1 .448-1 1 0 .55.446 1 1 1 .553 0 1-.45 1-1 0-.552-.447-1-1-1M6.938 11.646c-.553 0-1 .448-1 1 0 .55.447 1 1 1 .553 0 1-.45 1-1 0-.552-.447-1-1-1M6.938 16.396c-.553 0-1 .448-1 1 0 .55.447 1 1 1 .553 0 1-.45 1-1 0-.552-.447-1-1-1M6.938 21.146c-.553 0-1 .448-1 1 0 .55.447 1 1 1 .553 0 1-.45 1-1 0-.552-.447-1-1-1M6.938 25.896c-.553 0-1 .448-1 1 0 .55.447 1 1 1 .553 0 1-.45 1-1 0-.552-.447-1-1-1M11.688 11.646c-.554 0-1 .448-1 1 0 .55.446 1 1 1 .552 0 1-.45 1-1 0-.552-.448-1-1-1M11.688 16.396c-.554 0-1 .448-1 1 0 .55.446 1 1 1 .552 0 1-.45 1-1 0-.552-.448-1-1-1M11.688 21.146c-.554 0-1 .448-1 1 0 .55.446 1 1 1 .552 0 1-.45 1-1 0-.552-.448-1-1-1M11.688 25.896c-.554 0-1 .448-1 1 0 .55.446 1 1 1 .552 0 1-.45 1-1 0-.552-.448-1-1-1M16.438 11.646c-.553 0-1 .448-1 1 0 .55.446 1 1 1 .553 0 1-.45 1-1 0-.552-.447-1-1-1"/></g></g></svg>