<svg width="38" height="38" viewBox="0 0 38 38" xmlns="http://www.w3.org/2000/svg"><g id="Welcome" fill="none" fill-rule="evenodd"><g id="Catalog-3" transform="translate(-558 -1061)" stroke="#21242C"><g id="Shape-2-+-Контакты" transform="translate(543 1062)"><path d="M37.913 25.69s3.037-1.74 3.832-2.158c.793-.42 1.614-.525 2.113-.22.755.462 7.097 4.68 7.63 5.054.535.374.792 1.443.058 2.49-.73 1.048-4.104 5.188-5.534 5.144-1.43-.047-7.384-.177-18.61-11.406C16.18 13.37 16.047 7.414 16 5.984c-.045-1.43 4.095-4.806 5.142-5.538 1.048-.73 2.118-.456 2.49.058.423.586 4.593 6.908 5.052 7.633.315.494.2 1.32-.22 2.114-.417.796-2.156 3.832-2.156 3.832s1.226 2.09 5.37 6.234c4.146 4.145 6.235 5.373 6.235 5.373z" id="menu-contacts"/></g></g></g></svg>