<svg width="40" height="41" viewBox="0 0 40 41" xmlns="http://www.w3.org/2000/svg"><g id="Welcome" fill="none" fill-rule="evenodd"><g id="Catalog-3" transform="translate(-70 -1060)"><g id="Каталог-товаров-+-Imported-Layers" transform="translate(30 1061)"><g id="menu-catalog" transform="translate(40.5 .5)"><path d="M38 37.958l-5.986-8.255V18.876c0-4.024-3.706-6.087-8.264-9.975m3.563 14.808l-6.532-6.53c-.982-.985-2.578-.985-3.56 0-.985.98-.985 2.577 0 3.562l5.707 7.75v3.655c0 1.485.1 2.9.96 4.108L25.137 38m-8.71-4.982H3.364C1.404 33.018 0 31.605 0 29.646V3.52C0 1.563 1.603-.04 3.563-.04h16.625c1.96 0 2.83 1.67 2.83 3.63v11.87" id="Stroke-1" stroke="#252324" stroke-linecap="round" stroke-linejoin="round"/><g id="Group" transform="translate(5.5 5.5)" fill="#252324"><path d="M1.03 0C.46 0 0 .462 0 1.03c0 .57.46 1.032 1.03 1.032.572 0 1.032-.463 1.032-1.03C2.063.46 1.603 0 1.032 0" id="Fill-2"/><path d="M5.688-.104c-.553 0-1 .448-1 1 0 .55.447 1 1 1 .553 0 1-.45 1-1 0-.552-.447-1-1-1" id="Fill-3"/><path d="M10.438-.104c-.554 0-1 .448-1 1 0 .55.446 1 1 1 .553 0 1-.45 1-1 0-.552-.447-1-1-1" id="Fill-4"/><path d="M.938 4.646c-.553 0-1 .448-1 1 0 .55.447 1 1 1 .552 0 1-.45 1-1 0-.552-.448-1-1-1" id="Fill-5"/><path d="M.938 9.396c-.553 0-1 .448-1 1 0 .55.447 1 1 1 .552 0 1-.45 1-1 0-.552-.448-1-1-1" id="Fill-6"/><path d="M.938 14.146c-.553 0-1 .448-1 1 0 .55.447 1 1 1 .552 0 1-.45 1-1 0-.552-.448-1-1-1" id="Fill-7"/><path d="M.938 18.896c-.553 0-1 .448-1 1 0 .55.447 1 1 1 .552 0 1-.45 1-1 0-.552-.448-1-1-1" id="Fill-8"/><path d="M5.688 4.646c-.553 0-1 .448-1 1 0 .55.447 1 1 1 .553 0 1-.45 1-1 0-.552-.447-1-1-1" id="Fill-9"/><path d="M5.688 9.396c-.553 0-1 .448-1 1 0 .55.447 1 1 1 .553 0 1-.45 1-1 0-.552-.447-1-1-1" id="Fill-10"/><path d="M5.688 14.146c-.553 0-1 .448-1 1 0 .55.447 1 1 1 .553 0 1-.45 1-1 0-.552-.447-1-1-1" id="Fill-11"/><path d="M5.688 18.896c-.553 0-1 .448-1 1 0 .55.447 1 1 1 .553 0 1-.45 1-1 0-.552-.447-1-1-1" id="Fill-12"/><path d="M10.438 4.646c-.554 0-1 .448-1 1 0 .55.446 1 1 1 .553 0 1-.45 1-1 0-.552-.447-1-1-1" id="Fill-13"/></g></g></g></g></g></svg>