<svg width="47" height="42" viewBox="0 0 47 42" xmlns="http://www.w3.org/2000/svg"><g id="Welcome" fill="none" fill-rule="evenodd"><g id="Catalog-3" transform="translate(-229 -1058)" stroke-linecap="round" stroke="#1B1A19" stroke-linejoin="round"><g id="Imported-Layers-+-Каталог-товаров-+-Imported-Layers-2-+-Imported-Layers-2" transform="translate(220 1059)"><path d="M22 37c0 1.656-1.343 3-3 3s-3-1.344-3-3c0-1.657 1.343-3 3-3s3 1.343 3 3zm22 0c0 1.656-1.343 3-3 3s-3-1.344-3-3c0-1.657 1.343-3 3-3s3 1.343 3 3zM56 0h-7l-8.202 33.506h-22M41.994 30.5h-25.94L10.11 12.535h36L41.994 30.5z" id="menu-cart"/></g></g></g></svg>