<svg width="37" height="40" viewBox="0 0 37 40" xmlns="http://www.w3.org/2000/svg"><g id="Welcome" fill="none" fill-rule="evenodd"><g id="Catalog-3" transform="translate(-393 -1060)" stroke-linecap="round" stroke="#1B1A19" stroke-linejoin="round"><g id="Каталог-товаров-+-Imported-Layers-2-+-Imported-Layers" transform="translate(353 1061)"><path d="M53.895 20.912v5.04l-9.228 3.315c-2.2.79-3.667 2.887-3.667 5.237v3.002h35v-3.002c0-2.35-1.47-4.446-3.668-5.237l-9.227-3.316v-5.415m4.375-9.413c0 6.142-4.124 11.122-9.21 11.122-5.087 0-9.21-4.98-9.21-11.122C49.06 4.98 53.182 0 58.27 0c5.086 0 9.21 4.98 9.21 11.122zm-.057-1.014c-.31.038-.552.027-.864.087-3.138.608-5.153-.536-6.88-3.577-1.036 2-4.276 3.577-6.937 3.577-1.31 0-2.437-.27-3.565-.864" id="menu-profile"/></g></g></g></svg>