<svg width="55" height="36" viewBox="0 0 55 36" xmlns="http://www.w3.org/2000/svg"><g id="Welcome" fill="none" fill-rule="evenodd"><g id="Index-page" transform="translate(-27 -31)" fill="#D8D8D8"><g id="Header"><path d="M29.006 31C27.898 31 27 31.888 27 33c0 1.105.886 2 2.006 2h50.988C81.102 35 82 34.112 82 33c0-1.105-.886-2-2.006-2H29.006zm0 16C27.898 47 27 47.888 27 49c0 1.105.886 2 2.006 2h50.988C81.102 51 82 50.112 82 49c0-1.105-.886-2-2.006-2H29.006zm0 16C27.898 63 27 63.888 27 65c0 1.105.886 2 2.006 2h50.988C81.102 67 82 66.112 82 65c0-1.105-.886-2-2.006-2H29.006z" id="nav"/></g></g></g></svg>