<svg width="40" height="40" viewBox="0 0 40 40" xmlns="http://www.w3.org/2000/svg"><g id="Page-1" fill="none" fill-rule="evenodd"><path d="M31.703 40H31.4c-5.224 0-15.81-5.262-20.973-10.426C5.262 24.41 0 13.824 0 8.6v-.303l.168-.252C1.428 6.157 5.753 0 8.6 0c2.377 0 7.24 4.417 8.674 7.876.87 2.102.282 3.316-.366 3.965-1.05 1.05-2.1 1.7-2.944 2.22-1.36.84-1.83 1.18-1.83 2.14 0 2.12 2.427 4.546 4.774 6.893 2.348 2.348 4.774 4.774 6.892 4.774.96 0 1.3-.47 2.14-1.83.52-.845 1.17-1.895 2.22-2.944.525-.526 1.227-.803 2.03-.803 3.65 0 9.81 6.21 9.81 9.11 0 2.847-6.158 7.174-8.045 8.432l-.252.168zM2.007 8.895c.2 4.835 5.15 14.58 9.834 19.265 4.686 4.685 14.43 9.634 19.264 9.834C34.484 35.7 38 32.564 38 31.4c0-1.678-5.164-7.11-7.81-7.11-.354 0-.515.116-.616.217-.885.885-1.442 1.786-1.933 2.58-.843 1.367-1.716 2.78-3.84 2.78-2.946 0-5.67-2.724-8.303-5.357-2.64-2.638-5.363-5.362-5.363-8.31 0-2.123 1.413-2.996 2.78-3.84.793-.492 1.694-1.05 2.58-1.933.393-.394.18-1.188-.067-1.786C14.144 5.546 9.783 2 8.6 2 7.436 2 4.3 5.516 2.008 8.895z" id="phone" fill="#21242C"/></g></svg>