<svg width="32" height="32" viewBox="0 0 32 32" xmlns="http://www.w3.org/2000/svg"><path d="M16 0C7.164 0 0 7.164 0 16c0 8.837 7.164 16 16 16s16-7.163 16-16c0-8.836-7.164-16-16-16m8.764 26.65c-.297-.133-.65-.294-.848-.364-.874-.31-1.777-.548-2.687-.724-1.25-.244-1.69-.832-1.76-2.14-.01-.19-.26-1.777-.06-1.877.83-.414.965-1.73 1.04-2.536.057-.595.366-.864.64-1.35.3-.53.443-1.13.605-1.713.12-.426.33-1.135.25-1.575-.074-.407-.38-.783-.38-1.217 0-.558.215-1.148.275-1.707.094-.86.08-1.733-.092-2.584-.457-2.29-2.688-3.123-4.765-3.568-1.957-.42-4.246.593-5.57 1.97-.543.564-1.21 1.274-1.314 2.085-.096.747-.087 1.635.025 2.375.06.39.093.783.143 1.172.04.312.267.606.183.92-.048.186-.157.347-.243.518-.402.805.024 1.906.383 2.65.17.348.368.694.615.996.296.363.308.618.325 1.082.03.82.268 2.2 1.095 2.613.2.1-.086 1.557-.097 1.746-.07 1.31.092 1.898-1.158 2.142-.91.177-1.812.415-2.686.724-.335.12-.86.323-1.276.502C4.238 24.258 2.2 20.363 2.2 16 2.2 8.39 8.39 2.2 16 2.2S29.8 8.39 29.8 16c0 4.285-1.962 8.118-5.036 10.65" fill="#FFF" fill-rule="evenodd"/></svg>