<svg width="66" height="66" viewBox="0 0 66 66" xmlns="http://www.w3.org/2000/svg"><g id="Page-1" fill="none" fill-rule="evenodd"><g id="Imported-Layers" transform="translate(1 1)" fill="#0B4ACE"><path d="M29.802 1.863c0 1.105.896 2 2 2 7.48 0 14.51 2.912 19.8 8.2 5.288 5.29 8.2 12.322 8.2 19.8 0 7.38-2.842 14.324-8 19.587v-5.587c0-1.104-.895-2-2-2-1.104 0-2 .896-2 2v12h12c1.105 0 2-.895 2-2 0-1.104-.895-2-2-2h-4.776c5.66-5.968 8.776-13.742 8.776-22 0-8.547-3.328-16.583-9.373-22.627C48.385 3.19 40.35-.137 31.8-.137c-1.104 0-2 .896-2 2zM9.176 54.49c6.044 6.045 14.08 9.373 22.626 9.373 1.105 0 2-.895 2-2 0-1.104-.895-2-2-2-7.48 0-14.51-2.912-19.797-8.2-5.29-5.29-8.203-12.32-8.203-19.8 0-7.38 2.842-14.323 8-19.587v5.587c0 1.105.896 2 2 2 1.105 0 2-.895 2-2v-12h-12c-1.104 0-2 .896-2 2 0 1.105.896 2 2 2H8.58C2.916 15.833-.2 23.605-.2 31.863c0 8.547 3.33 16.583 9.374 22.627z" id="refresh"/></g></g></svg>