<svg width="14" height="14" viewBox="0 0 14 14" xmlns="http://www.w3.org/2000/svg"><g id="Page-1" fill="none" fill-rule="evenodd"><path d="M13.855 11.735L10.77 8.61c.503-.875.765-1.85.765-2.832C11.535 2.593 8.945 0 5.767 0S0 2.593 0 5.778c0 3.186 2.59 5.778 5.767 5.778 1.015 0 2.018-.28 2.913-.814l3.07 3.113c.068.07.166.112.265.112.098 0 .196-.04.265-.112l1.575-1.593c.145-.15.145-.382 0-.527zM5.767 2.25c1.942 0 3.52 1.583 3.52 3.528 0 1.946-1.578 3.527-3.52 3.527s-3.52-1.58-3.52-3.527c0-1.945 1.578-3.527 3.52-3.527z" id="search" fill="#000"/></g></svg>