<svg width="13" height="13" viewBox="0 0 13 13" xmlns="http://www.w3.org/2000/svg"><g fill="#0B0B0A" fill-rule="evenodd"><path d="M.56 5.773h4.8c.22 0 .4-.18.4-.4v-4.8c0-.22-.18-.4-.4-.4H.56c-.22 0-.4.18-.4.4v4.8c0 .22.18.4.4.4zm.4-4.8h4v4h-4v-4zM12.96.573c0-.22-.18-.4-.4-.4h-4.8c-.22 0-.4.18-.4.4v4.8c0 .22.18.4.4.4h4.8c.22 0 .4-.18.4-.4v-4.8zm-4.8.4h4v4h-4v-4zM.56 12.973h5c.22 0 .4-.18.4-.4v-5c0-.22-.18-.4-.4-.4h-5c-.22 0-.4.18-.4.4v5c0 .22.18.4.4.4zm.4-5h4.2v4.2H.96v-4.2zM12.56 7.373h-4.8c-.22 0-.4.18-.4.4v4.8c0 .22.18.4.4.4h4.8c.22 0 .4-.18.4-.4v-4.8c0-.22-.18-.4-.4-.4zm-4.4.8h4v4h-4v-4z"/></g></svg>