<svg width="12" height="17" viewBox="0 0 23 28" xmlns="http://www.w3.org/2000/svg" xmlns:sketch="http://www.bohemiancoding.com/sketch/ns"><path d="M0 0h12.8c4.2 0 7.8 2.085 7.8 6.156 0 3.475-1.3 4.766-3.8 6.354.2.199 1.7.596 2.2.894.8.397 1.3.794 1.8 1.291 1.5 1.489 1.7 2.879 1.7 5.163 0 5.361-5.2 8.141-10.3 8.141h-12.2v-27.999zm7 7.347v3.674c3.3 0 6.4.397 6.4-3.078 0-3.276-3.5-2.78-6.4-2.78v2.184zm0 15.389c3.6 0 8.1.596 8.1-3.475.1-4.269-4.6-3.475-8.1-3.475v6.95z" sketch:type="MSShapeGroup" fill="#FFFFFF"/></svg>