<svg width="27" height="30" viewBox="0 0 27 30" xmlns="http://www.w3.org/2000/svg"><path d="M25.8 27.115c-.062-.093-.117-.222-.225-.35-.313-.388-.95-.867-1.738-1.293-1.878-1.014-5.188-2.215-5.796-2.592-.257-.16-1.318-.716-1.178-1.792.036-.197.09-.405.17-.62.124-.234.388-.71 1.297-1.058.91-.347 6.988-1.783 7.2-3.772-4.565-.047-4.015-4.76-4.334-8.333C20.82 3.11 17.866 0 13.363 0 8.86 0 6.37 3.168 5.53 7.305c-.704 3.468-.098 8.405-4.59 8.172-.02 2.19 6.485 3.585 7.445 3.946.96.36 1.17.814 1.293 1.044.08.216.134.424.17.62.14 1.077-.92 1.634-1.18 1.793-.645.395-3.918 1.578-5.796 2.592-.787.426-1.425.905-1.737 1.294-.11.127-.16.258-.225.35-.548.78-.932 1.755-.91 2.72h26.755c.042-.733-.198-1.578-.956-2.72" fill="#000" fill-rule="evenodd"/></svg>