<svg width="35" height="48" viewBox="0 0 35 48" xmlns="http://www.w3.org/2000/svg" xmlns:sketch="http://www.bohemiancoding.com/sketch/ns"><title>youtube</title><g sketch:type="MSShapeGroup" fill="#231F20"><path d="M12.8.2h-3.5l-2.1 8.8h-.2l-2.3-8.8h-3.4l4.1 13.3v8.8h3.4v-9.2l4-12.9zM13.8 21.5c.8.8 1.9 1.2 3.2 1.2 1.4 0 2.5-.4 3.2-1.2.8-.8 1.2-1.9 1.2-3.3v-8.4c0-1.2-.4-2.3-1.2-3-.8-.8-1.8-1.2-3.1-1.2-1.4 0-2.5.4-3.3 1.1-.8.8-1.2 1.8-1.2 3v8.5c0 1.4.4 2.5 1.2 3.3zm1.9-11.9c0-.4.1-.6.3-.9.2-.2.5-.3.9-.3s.7.1 1 .3c.2.2.4.5.4.9v8.9c0 .4-.1.8-.4 1-.2.3-.6.4-1 .4s-.7-.1-.9-.4c-.2-.2-.3-.6-.3-1v-8.9zM29.6 6v12.4c-.3.4-.6.6-.9.9-.3.2-.6.3-.8.3-.3 0-.5-.1-.6-.3-.1-.2-.2-.5-.2-.8v-12.5h-3v13.7c0 1 .2 1.7.5 2.2.4.5.9.7 1.6.7.6 0 1.2-.2 1.8-.5.6-.3 1.2-.9 1.7-1.5v1.8h3v-16.4h-3.1zM21.1 34.2c-.1 0-.3 0-.4.1l-.4.3v7c.2.2.3.3.5.4.2.1.3.1.5.1.3 0 .4-.1.6-.2.1-.2.2-.4.2-.8v-5.8c0-.4-.1-.7-.2-.9-.3-.1-.5-.2-.8-.2zm7.6 0c-.3 0-.6.1-.7.3-.1.2-.2.5-.2 1v1.1h1.8v-1.1c0-.5-.1-.8-.2-1-.1-.2-.4-.3-.7-.3zm5.6-4.2c0-2.7-2.2-4.9-4.9-4.9-3.7-.2-7.5-.2-11.3-.2h-1.2c-3.9 0-7.6.1-11.3.2-2.7 0-4.9 2.2-4.9 4.9-.2 2.1-.2 4.3-.2 6.4 0 2.1.1 4.3.2 6.4 0 2.7 2.2 4.9 4.9 4.9 3.7.2 7.5.2 11.4.2h1.1c3.9 0 7.7-.1 11.4-.2 2.7 0 4.9-2.2 4.9-4.9.2-2.1.2-4.3.2-6.4-.1-2.2-.2-4.3-.3-6.4zm-26.5 13.7h-2.3v-12.9h-2.5v-2.2h7.2v2.2h-2.4v12.9zm8.3 0h-2.1v-1.2c-.4.5-.8.8-1.2 1-.4.2-.8.4-1.2.4-.5 0-.8-.2-1.1-.5-.2-.3-.4-.8-.4-1.5v-9.3h2.1v8.6c0 .3 0 .5.1.6.1.1.2.2.4.2s.3-.1.6-.2l.6-.6v-8.5h2.1v11h.1zm8-2.3c0 .8-.2 1.4-.5 1.8-.3.4-.8.6-1.4.6-.4 0-.8-.1-1.1-.2-.3-.2-.6-.4-.9-.8v.9h-2.1v-15.1h2.1v4.9c.3-.3.6-.6.9-.8.3-.2.6-.3 1-.3.7 0 1.2.2 1.5.7.3.5.5 1.2.5 2.1v6.2zm7.7-3h-4v2.1c0 .6.1 1 .2 1.2.1.2.4.3.7.3.3 0 .6-.1.7-.3.1-.2.2-.6.2-1.3v-.8h2.1v.8c0 1.1-.3 2-.8 2.6-.5.6-1.3.9-2.3.9-.9 0-1.7-.3-2.2-.9-.5-.6-.8-1.5-.8-2.5v-5c0-1 .3-1.8.9-2.4.6-.6 1.3-.9 2.3-.9 1 0 1.7.3 2.2.8.5.6.8 1.4.8 2.4v3z"/></g></svg>